<svg xmlns="http://www.w3.org/2000/svg" xmlns:xlink="http://www.w3.org/1999/xlink" width="500" zoomAndPan="magnify" viewBox="0 0 375 374.999991" height="500" preserveAspectRatio="xMidYMid meet" version="1.0"><defs><g/><clipPath id="d5874e7125"><path d="M 126 191 L 264 191 L 264 230.269531 L 126 230.269531 Z M 126 191 " clip-rule="nonzero"/></clipPath><clipPath id="df58d0187e"><path d="M 98.789062 88 L 118 88 L 118 179 L 98.789062 179 Z M 98.789062 88 " clip-rule="nonzero"/></clipPath><clipPath id="399b89ee55"><path d="M 215 139 L 276.539062 139 L 276.539062 221 L 215 221 Z M 215 139 " clip-rule="nonzero"/></clipPath><clipPath id="7c25f796d5"><path d="M 105 53.269531 L 188 53.269531 L 188 209 L 105 209 Z M 105 53.269531 " clip-rule="nonzero"/></clipPath></defs><g fill="#a6e9de" fill-opacity="1"><g transform="translate(107.391628, 277.129494)"><g><path d="M 13.359375 -21.5 C 10.765625 -21.5 8.710938 -20.632812 7.203125 -18.90625 C 5.703125 -17.1875 4.953125 -14.820312 4.953125 -11.8125 C 4.953125 -8.71875 5.675781 -6.328125 7.125 -4.640625 C 8.582031 -2.953125 10.648438 -2.109375 13.328125 -2.109375 C 14.972656 -2.109375 16.851562 -2.40625 18.96875 -3 L 18.96875 -0.59375 C 17.332031 0.0195312 15.3125 0.328125 12.90625 0.328125 C 9.425781 0.328125 6.738281 -0.726562 4.84375 -2.84375 C 2.957031 -4.957031 2.015625 -7.957031 2.015625 -11.84375 C 2.015625 -14.28125 2.46875 -16.410156 3.375 -18.234375 C 4.289062 -20.066406 5.609375 -21.476562 7.328125 -22.46875 C 9.046875 -23.46875 11.066406 -23.96875 13.390625 -23.96875 C 15.867188 -23.96875 18.035156 -23.515625 19.890625 -22.609375 L 18.734375 -20.25 C 16.941406 -21.082031 15.148438 -21.5 13.359375 -21.5 Z M 13.359375 -21.5 "/></g></g></g><g fill="#a6e9de" fill-opacity="1"><g transform="translate(130.685646, 277.129494)"><g><path d="M 23.75 -11.84375 C 23.75 -8.0625 22.789062 -5.085938 20.875 -2.921875 C 18.96875 -0.753906 16.3125 0.328125 12.90625 0.328125 C 9.425781 0.328125 6.738281 -0.734375 4.84375 -2.859375 C 2.957031 -4.992188 2.015625 -8 2.015625 -11.875 C 2.015625 -15.71875 2.960938 -18.695312 4.859375 -20.8125 C 6.753906 -22.9375 9.445312 -24 12.9375 -24 C 16.332031 -24 18.984375 -22.921875 20.890625 -20.765625 C 22.796875 -18.609375 23.75 -15.632812 23.75 -11.84375 Z M 4.921875 -11.84375 C 4.921875 -8.644531 5.601562 -6.21875 6.96875 -4.5625 C 8.332031 -2.90625 10.3125 -2.078125 12.90625 -2.078125 C 15.53125 -2.078125 17.507812 -2.898438 18.84375 -4.546875 C 20.175781 -6.203125 20.84375 -8.632812 20.84375 -11.84375 C 20.84375 -15.019531 20.175781 -17.429688 18.84375 -19.078125 C 17.519531 -20.722656 15.550781 -21.546875 12.9375 -21.546875 C 10.320312 -21.546875 8.332031 -20.71875 6.96875 -19.0625 C 5.601562 -17.40625 4.921875 -15 4.921875 -11.84375 Z M 4.921875 -11.84375 "/></g></g></g><g fill="#a6e9de" fill-opacity="1"><g transform="translate(158.875858, 277.129494)"><g><path d="M 22.109375 -12.03125 C 22.109375 -8.132812 21.046875 -5.15625 18.921875 -3.09375 C 16.804688 -1.03125 13.765625 0 9.796875 0 L 3.25 0 L 3.25 -23.625 L 10.484375 -23.625 C 14.160156 -23.625 17.015625 -22.601562 19.046875 -20.5625 C 21.085938 -18.53125 22.109375 -15.6875 22.109375 -12.03125 Z M 19.203125 -11.9375 C 19.203125 -15.019531 18.425781 -17.34375 16.875 -18.90625 C 15.332031 -20.46875 13.035156 -21.25 9.984375 -21.25 L 6 -21.25 L 6 -2.375 L 9.34375 -2.375 C 12.613281 -2.375 15.070312 -3.175781 16.71875 -4.78125 C 18.375 -6.394531 19.203125 -8.78125 19.203125 -11.9375 Z M 19.203125 -11.9375 "/></g></g></g><g fill="#a6e9de" fill-opacity="1"><g transform="translate(185.417846, 277.129494)"><g><path d="M 16.421875 0 L 3.25 0 L 3.25 -23.625 L 16.421875 -23.625 L 16.421875 -21.1875 L 6 -21.1875 L 6 -13.578125 L 15.78125 -13.578125 L 15.78125 -11.15625 L 6 -11.15625 L 6 -2.453125 L 16.421875 -2.453125 Z M 16.421875 0 "/></g></g></g><g fill="#a6e9de" fill-opacity="1"><g transform="translate(206.239529, 277.129494)"><g><path d="M 18.09375 0 L 15.15625 -7.515625 L 5.6875 -7.515625 L 2.78125 0 L 0 0 L 9.34375 -23.71875 L 11.65625 -23.71875 L 20.9375 0 Z M 14.296875 -9.984375 L 11.546875 -17.3125 C 11.191406 -18.238281 10.828125 -19.375 10.453125 -20.71875 C 10.210938 -19.6875 9.875 -18.550781 9.4375 -17.3125 L 6.65625 -9.984375 Z M 14.296875 -9.984375 "/></g></g></g><g fill="#a6e9de" fill-opacity="1"><g transform="translate(229.598178, 277.129494)"><g><path d="M 3.25 0 L 3.25 -23.625 L 6 -23.625 L 6 -2.484375 L 16.421875 -2.484375 L 16.421875 0 Z M 3.25 0 "/></g></g></g><g fill="#a6e9de" fill-opacity="1"><g transform="translate(249.191766, 277.129494)"><g><path d="M 16.421875 0 L 3.25 0 L 3.25 -23.625 L 16.421875 -23.625 L 16.421875 -21.1875 L 6 -21.1875 L 6 -13.578125 L 15.78125 -13.578125 L 15.78125 -11.15625 L 6 -11.15625 L 6 -2.453125 L 16.421875 -2.453125 Z M 16.421875 0 "/></g></g></g><g fill="#a6e9de" fill-opacity="1"><g transform="translate(26.868183, 297.318732)"><g><path d="M 6.90625 -2.625 C 6.90625 -1.75 6.585938 -1.066406 5.953125 -0.578125 C 5.328125 -0.0976562 4.476562 0.140625 3.40625 0.140625 C 2.238281 0.140625 1.34375 -0.0078125 0.71875 -0.3125 L 0.71875 -1.421875 C 1.113281 -1.253906 1.550781 -1.117188 2.03125 -1.015625 C 2.507812 -0.921875 2.984375 -0.875 3.453125 -0.875 C 4.210938 -0.875 4.785156 -1.015625 5.171875 -1.296875 C 5.554688 -1.585938 5.75 -1.992188 5.75 -2.515625 C 5.75 -2.847656 5.679688 -3.125 5.546875 -3.34375 C 5.410156 -3.5625 5.179688 -3.757812 4.859375 -3.9375 C 4.535156 -4.125 4.046875 -4.335938 3.390625 -4.578125 C 2.472656 -4.898438 1.816406 -5.285156 1.421875 -5.734375 C 1.035156 -6.179688 0.84375 -6.769531 0.84375 -7.5 C 0.84375 -8.257812 1.125 -8.863281 1.6875 -9.3125 C 2.257812 -9.757812 3.015625 -9.984375 3.953125 -9.984375 C 4.929688 -9.984375 5.832031 -9.800781 6.65625 -9.4375 L 6.296875 -8.4375 C 5.484375 -8.78125 4.695312 -8.953125 3.9375 -8.953125 C 3.320312 -8.953125 2.84375 -8.820312 2.5 -8.5625 C 2.164062 -8.300781 2 -7.941406 2 -7.484375 C 2 -7.140625 2.0625 -6.859375 2.1875 -6.640625 C 2.3125 -6.421875 2.519531 -6.222656 2.8125 -6.046875 C 3.113281 -5.867188 3.570312 -5.664062 4.1875 -5.4375 C 5.21875 -5.070312 5.925781 -4.675781 6.3125 -4.25 C 6.707031 -3.832031 6.90625 -3.289062 6.90625 -2.625 Z M 6.90625 -2.625 "/></g></g></g><g fill="#a6e9de" fill-opacity="1"><g transform="translate(45.365219, 297.318732)"><g><path d="M 9.890625 -4.9375 C 9.890625 -3.363281 9.488281 -2.125 8.6875 -1.21875 C 7.894531 -0.3125 6.789062 0.140625 5.375 0.140625 C 3.925781 0.140625 2.804688 -0.300781 2.015625 -1.1875 C 1.234375 -2.070312 0.84375 -3.328125 0.84375 -4.953125 C 0.84375 -6.546875 1.234375 -7.785156 2.015625 -8.671875 C 2.804688 -9.554688 3.929688 -10 5.390625 -10 C 6.804688 -10 7.910156 -9.546875 8.703125 -8.640625 C 9.492188 -7.742188 9.890625 -6.507812 9.890625 -4.9375 Z M 2.046875 -4.9375 C 2.046875 -3.601562 2.328125 -2.59375 2.890625 -1.90625 C 3.460938 -1.21875 4.289062 -0.875 5.375 -0.875 C 6.46875 -0.875 7.289062 -1.210938 7.84375 -1.890625 C 8.40625 -2.578125 8.6875 -3.59375 8.6875 -4.9375 C 8.6875 -6.257812 8.40625 -7.257812 7.84375 -7.9375 C 7.289062 -8.625 6.472656 -8.96875 5.390625 -8.96875 C 4.296875 -8.96875 3.460938 -8.625 2.890625 -7.9375 C 2.328125 -7.25 2.046875 -6.25 2.046875 -4.9375 Z M 2.046875 -4.9375 "/></g></g></g><g fill="#a6e9de" fill-opacity="1"><g transform="translate(67.028983, 297.318732)"><g><path d="M 2.5 0 L 1.359375 0 L 1.359375 -9.84375 L 6.84375 -9.84375 L 6.84375 -8.828125 L 2.5 -8.828125 L 2.5 -5.21875 L 6.578125 -5.21875 L 6.578125 -4.203125 L 2.5 -4.203125 Z M 2.5 0 "/></g></g></g><g fill="#a6e9de" fill-opacity="1"><g transform="translate(85.075554, 297.318732)"><g><path d="M 4.375 0 L 3.234375 0 L 3.234375 -8.828125 L 0.125 -8.828125 L 0.125 -9.84375 L 7.5 -9.84375 L 7.5 -8.828125 L 4.375 -8.828125 Z M 4.375 0 "/></g></g></g><g fill="#a6e9de" fill-opacity="1"><g transform="translate(103.633109, 297.318732)"><g><path d="M 9.9375 0 L 8.8125 0 L 6.828125 -6.59375 C 6.734375 -6.882812 6.625 -7.25 6.5 -7.6875 C 6.382812 -8.132812 6.328125 -8.398438 6.328125 -8.484375 C 6.222656 -7.898438 6.066406 -7.253906 5.859375 -6.546875 L 3.9375 0 L 2.796875 0 L 0.1875 -9.84375 L 1.390625 -9.84375 L 2.953125 -3.765625 C 3.160156 -2.910156 3.316406 -2.140625 3.421875 -1.453125 C 3.535156 -2.265625 3.710938 -3.066406 3.953125 -3.859375 L 5.71875 -9.84375 L 6.9375 -9.84375 L 8.78125 -3.796875 C 9 -3.109375 9.179688 -2.328125 9.328125 -1.453125 C 9.410156 -2.085938 9.570312 -2.863281 9.8125 -3.78125 L 11.359375 -9.84375 L 12.5625 -9.84375 Z M 9.9375 0 "/></g></g></g><g fill="#a6e9de" fill-opacity="1"><g transform="translate(127.320615, 297.318732)"><g><path d="M 7.53125 0 L 6.3125 -3.125 L 2.375 -3.125 L 1.15625 0 L 0 0 L 3.890625 -9.875 L 4.859375 -9.875 L 8.71875 0 Z M 5.953125 -4.15625 L 4.8125 -7.203125 C 4.664062 -7.585938 4.515625 -8.0625 4.359375 -8.625 C 4.253906 -8.195312 4.113281 -7.722656 3.9375 -7.203125 L 2.765625 -4.15625 Z M 5.953125 -4.15625 "/></g></g></g><g fill="#a6e9de" fill-opacity="1"><g transform="translate(146.974079, 297.318732)"><g><path d="M 2.5 -4.09375 L 2.5 0 L 1.359375 0 L 1.359375 -9.84375 L 4.046875 -9.84375 C 5.253906 -9.84375 6.144531 -9.609375 6.71875 -9.140625 C 7.300781 -8.679688 7.59375 -7.988281 7.59375 -7.0625 C 7.59375 -5.757812 6.929688 -4.878906 5.609375 -4.421875 L 8.28125 0 L 6.9375 0 L 4.546875 -4.09375 Z M 2.5 -5.078125 L 4.0625 -5.078125 C 4.875 -5.078125 5.46875 -5.234375 5.84375 -5.546875 C 6.21875 -5.867188 6.40625 -6.351562 6.40625 -7 C 6.40625 -7.644531 6.210938 -8.109375 5.828125 -8.390625 C 5.441406 -8.679688 4.828125 -8.828125 3.984375 -8.828125 L 2.5 -8.828125 Z M 2.5 -5.078125 "/></g></g></g><g fill="#a6e9de" fill-opacity="1"><g transform="translate(166.425841, 297.318732)"><g><path d="M 6.84375 0 L 1.359375 0 L 1.359375 -9.84375 L 6.84375 -9.84375 L 6.84375 -8.828125 L 2.5 -8.828125 L 2.5 -5.65625 L 6.578125 -5.65625 L 6.578125 -4.640625 L 2.5 -4.640625 L 2.5 -1.015625 L 6.84375 -1.015625 Z M 6.84375 0 "/></g></g></g><g fill="#a6e9de" fill-opacity="1"><g transform="translate(185.023736, 297.318732)"><g><path d="M 6.90625 -2.625 C 6.90625 -1.75 6.585938 -1.066406 5.953125 -0.578125 C 5.328125 -0.0976562 4.476562 0.140625 3.40625 0.140625 C 2.238281 0.140625 1.34375 -0.0078125 0.71875 -0.3125 L 0.71875 -1.421875 C 1.113281 -1.253906 1.550781 -1.117188 2.03125 -1.015625 C 2.507812 -0.921875 2.984375 -0.875 3.453125 -0.875 C 4.210938 -0.875 4.785156 -1.015625 5.171875 -1.296875 C 5.554688 -1.585938 5.75 -1.992188 5.75 -2.515625 C 5.75 -2.847656 5.679688 -3.125 5.546875 -3.34375 C 5.410156 -3.5625 5.179688 -3.757812 4.859375 -3.9375 C 4.535156 -4.125 4.046875 -4.335938 3.390625 -4.578125 C 2.472656 -4.898438 1.816406 -5.285156 1.421875 -5.734375 C 1.035156 -6.179688 0.84375 -6.769531 0.84375 -7.5 C 0.84375 -8.257812 1.125 -8.863281 1.6875 -9.3125 C 2.257812 -9.757812 3.015625 -9.984375 3.953125 -9.984375 C 4.929688 -9.984375 5.832031 -9.800781 6.65625 -9.4375 L 6.296875 -8.4375 C 5.484375 -8.78125 4.695312 -8.953125 3.9375 -8.953125 C 3.320312 -8.953125 2.84375 -8.820312 2.5 -8.5625 C 2.164062 -8.300781 2 -7.941406 2 -7.484375 C 2 -7.140625 2.0625 -6.859375 2.1875 -6.640625 C 2.3125 -6.421875 2.519531 -6.222656 2.8125 -6.046875 C 3.113281 -5.867188 3.570312 -5.664062 4.1875 -5.4375 C 5.21875 -5.070312 5.925781 -4.675781 6.3125 -4.25 C 6.707031 -3.832031 6.90625 -3.289062 6.90625 -2.625 Z M 6.90625 -2.625 "/></g></g></g><g fill="#a6e9de" fill-opacity="1"><g transform="translate(203.520775, 297.318732)"><g><path d="M 9.890625 -4.9375 C 9.890625 -3.363281 9.488281 -2.125 8.6875 -1.21875 C 7.894531 -0.3125 6.789062 0.140625 5.375 0.140625 C 3.925781 0.140625 2.804688 -0.300781 2.015625 -1.1875 C 1.234375 -2.070312 0.84375 -3.328125 0.84375 -4.953125 C 0.84375 -6.546875 1.234375 -7.785156 2.015625 -8.671875 C 2.804688 -9.554688 3.929688 -10 5.390625 -10 C 6.804688 -10 7.910156 -9.546875 8.703125 -8.640625 C 9.492188 -7.742188 9.890625 -6.507812 9.890625 -4.9375 Z M 2.046875 -4.9375 C 2.046875 -3.601562 2.328125 -2.59375 2.890625 -1.90625 C 3.460938 -1.21875 4.289062 -0.875 5.375 -0.875 C 6.46875 -0.875 7.289062 -1.210938 7.84375 -1.890625 C 8.40625 -2.578125 8.6875 -3.59375 8.6875 -4.9375 C 8.6875 -6.257812 8.40625 -7.257812 7.84375 -7.9375 C 7.289062 -8.625 6.472656 -8.96875 5.390625 -8.96875 C 4.296875 -8.96875 3.460938 -8.625 2.890625 -7.9375 C 2.328125 -7.25 2.046875 -6.25 2.046875 -4.9375 Z M 2.046875 -4.9375 "/></g></g></g><g fill="#a6e9de" fill-opacity="1"><g transform="translate(225.184531, 297.318732)"><g><path d="M 1.359375 0 L 1.359375 -9.84375 L 2.5 -9.84375 L 2.5 -1.03125 L 6.84375 -1.03125 L 6.84375 0 Z M 1.359375 0 "/></g></g></g><g fill="#a6e9de" fill-opacity="1"><g transform="translate(243.271436, 297.318732)"><g><path d="M 8.78125 -9.84375 L 8.78125 -3.46875 C 8.78125 -2.351562 8.441406 -1.472656 7.765625 -0.828125 C 7.085938 -0.179688 6.15625 0.140625 4.96875 0.140625 C 3.789062 0.140625 2.875 -0.179688 2.21875 -0.828125 C 1.570312 -1.472656 1.25 -2.363281 1.25 -3.5 L 1.25 -9.84375 L 2.390625 -9.84375 L 2.390625 -3.421875 C 2.390625 -2.597656 2.613281 -1.96875 3.0625 -1.53125 C 3.507812 -1.09375 4.171875 -0.875 5.046875 -0.875 C 5.878906 -0.875 6.519531 -1.09375 6.96875 -1.53125 C 7.414062 -1.96875 7.640625 -2.601562 7.640625 -3.4375 L 7.640625 -9.84375 Z M 8.78125 -9.84375 "/></g></g></g><g fill="#a6e9de" fill-opacity="1"><g transform="translate(264.235958, 297.318732)"><g><path d="M 4.375 0 L 3.234375 0 L 3.234375 -8.828125 L 0.125 -8.828125 L 0.125 -9.84375 L 7.5 -9.84375 L 7.5 -8.828125 L 4.375 -8.828125 Z M 4.375 0 "/></g></g></g><g fill="#a6e9de" fill-opacity="1"><g transform="translate(282.793513, 297.318732)"><g><path d="M 1.359375 0 L 1.359375 -9.84375 L 2.5 -9.84375 L 2.5 0 Z M 1.359375 0 "/></g></g></g><g fill="#a6e9de" fill-opacity="1"><g transform="translate(297.572503, 297.318732)"><g><path d="M 9.890625 -4.9375 C 9.890625 -3.363281 9.488281 -2.125 8.6875 -1.21875 C 7.894531 -0.3125 6.789062 0.140625 5.375 0.140625 C 3.925781 0.140625 2.804688 -0.300781 2.015625 -1.1875 C 1.234375 -2.070312 0.84375 -3.328125 0.84375 -4.953125 C 0.84375 -6.546875 1.234375 -7.785156 2.015625 -8.671875 C 2.804688 -9.554688 3.929688 -10 5.390625 -10 C 6.804688 -10 7.910156 -9.546875 8.703125 -8.640625 C 9.492188 -7.742188 9.890625 -6.507812 9.890625 -4.9375 Z M 2.046875 -4.9375 C 2.046875 -3.601562 2.328125 -2.59375 2.890625 -1.90625 C 3.460938 -1.21875 4.289062 -0.875 5.375 -0.875 C 6.46875 -0.875 7.289062 -1.210938 7.84375 -1.890625 C 8.40625 -2.578125 8.6875 -3.59375 8.6875 -4.9375 C 8.6875 -6.257812 8.40625 -7.257812 7.84375 -7.9375 C 7.289062 -8.625 6.472656 -8.96875 5.390625 -8.96875 C 4.296875 -8.96875 3.460938 -8.625 2.890625 -7.9375 C 2.328125 -7.25 2.046875 -6.25 2.046875 -4.9375 Z M 2.046875 -4.9375 "/></g></g></g><g fill="#a6e9de" fill-opacity="1"><g transform="translate(319.236259, 297.318732)"><g><path d="M 9.03125 0 L 7.734375 0 L 2.359375 -8.25 L 2.296875 -8.25 C 2.367188 -7.28125 2.40625 -6.394531 2.40625 -5.59375 L 2.40625 0 L 1.359375 0 L 1.359375 -9.84375 L 2.640625 -9.84375 L 8 -1.609375 L 8.0625 -1.609375 C 8.050781 -1.734375 8.03125 -2.125 8 -2.78125 C 7.96875 -3.4375 7.957031 -3.90625 7.96875 -4.1875 L 7.96875 -9.84375 L 9.03125 -9.84375 Z M 9.03125 0 "/></g></g></g><g fill="#a6e9de" fill-opacity="1"><g transform="translate(340.557127, 297.318732)"><g><path d="M 6.90625 -2.625 C 6.90625 -1.75 6.585938 -1.066406 5.953125 -0.578125 C 5.328125 -0.0976562 4.476562 0.140625 3.40625 0.140625 C 2.238281 0.140625 1.34375 -0.0078125 0.71875 -0.3125 L 0.71875 -1.421875 C 1.113281 -1.253906 1.550781 -1.117188 2.03125 -1.015625 C 2.507812 -0.921875 2.984375 -0.875 3.453125 -0.875 C 4.210938 -0.875 4.785156 -1.015625 5.171875 -1.296875 C 5.554688 -1.585938 5.75 -1.992188 5.75 -2.515625 C 5.75 -2.847656 5.679688 -3.125 5.546875 -3.34375 C 5.410156 -3.5625 5.179688 -3.757812 4.859375 -3.9375 C 4.535156 -4.125 4.046875 -4.335938 3.390625 -4.578125 C 2.472656 -4.898438 1.816406 -5.285156 1.421875 -5.734375 C 1.035156 -6.179688 0.84375 -6.769531 0.84375 -7.5 C 0.84375 -8.257812 1.125 -8.863281 1.6875 -9.3125 C 2.257812 -9.757812 3.015625 -9.984375 3.953125 -9.984375 C 4.929688 -9.984375 5.832031 -9.800781 6.65625 -9.4375 L 6.296875 -8.4375 C 5.484375 -8.78125 4.695312 -8.953125 3.9375 -8.953125 C 3.320312 -8.953125 2.84375 -8.820312 2.5 -8.5625 C 2.164062 -8.300781 2 -7.941406 2 -7.484375 C 2 -7.140625 2.0625 -6.859375 2.1875 -6.640625 C 2.3125 -6.421875 2.519531 -6.222656 2.8125 -6.046875 C 3.113281 -5.867188 3.570312 -5.664062 4.1875 -5.4375 C 5.21875 -5.070312 5.925781 -4.675781 6.3125 -4.25 C 6.707031 -3.832031 6.90625 -3.289062 6.90625 -2.625 Z M 6.90625 -2.625 "/></g></g></g><g clip-path="url(#d5874e7125)"><path fill="#a6e9de" d="M 257.609375 193.253906 C 257.621094 193.238281 257.636719 193.214844 257.660156 193.1875 C 257.636719 193.214844 257.621094 193.238281 257.609375 193.253906 Z M 258.339844 196.617188 C 257.191406 195.742188 256.96875 194.09375 257.847656 192.941406 C 257.804688 192.996094 257.761719 193.050781 257.722656 193.101562 C 257.757812 193.058594 257.796875 193.007812 257.847656 192.941406 C 258 192.742188 258.070312 192.648438 258.09375 192.621094 C 258.0625 192.65625 257.957031 192.800781 257.847656 192.941406 C 258.726562 191.792969 260.371094 191.570312 261.523438 192.445312 C 262.675781 193.324219 262.898438 194.972656 262.019531 196.125 C 261.140625 197.273438 259.492188 197.496094 258.339844 196.617188 Z M 126.972656 202.929688 C 125.828125 204.148438 125.886719 206.0625 127.105469 207.207031 C 127.988281 208.035156 129.234375 208.230469 130.289062 207.8125 C 146.808594 222.144531 167.789062 230.007812 189.695312 230.007812 C 203.847656 230.007812 217.414062 226.828125 230.015625 220.554688 C 241.035156 215.070312 250.988281 207.25 258.980469 197.820312 C 260.300781 198.203125 261.777344 197.765625 262.660156 196.609375 C 263.804688 195.109375 263.515625 192.953125 262.011719 191.804688 C 260.507812 190.660156 258.351562 190.949219 257.207031 192.453125 C 256.371094 193.546875 256.304688 194.984375 256.902344 196.128906 C 240.082031 216 215.773438 227.328125 189.695312 227.328125 C 168.457031 227.328125 148.113281 219.710938 132.089844 205.824219 C 132.382812 204.773438 132.101562 203.59375 131.25 202.796875 C 130.03125 201.652344 128.117188 201.710938 126.972656 202.929688 " fill-opacity="1" fill-rule="nonzero"/></g><g clip-path="url(#df58d0187e)"><path fill="#a6e9de" d="M 110.242188 174.140625 C 110.238281 174.125 110.226562 174.101562 110.210938 174.070312 C 110.226562 174.105469 110.238281 174.128906 110.242188 174.140625 Z M 109.972656 173.542969 C 109.898438 173.375 109.867188 173.300781 109.972656 173.542969 Z M 106.609375 172.449219 C 107.925781 171.855469 109.484375 172.445312 110.074219 173.769531 C 110.667969 175.085938 110.078125 176.640625 108.757812 177.234375 C 107.4375 177.828125 105.882812 177.238281 105.289062 175.917969 C 104.695312 174.597656 105.289062 173.042969 106.609375 172.449219 Z M 116.585938 93.199219 C 117.503906 91.800781 117.109375 89.925781 115.714844 89.007812 C 114.316406 88.09375 112.441406 88.488281 111.523438 89.882812 C 110.855469 90.90625 110.886719 92.179688 111.496094 93.152344 C 103.257812 107.085938 98.910156 122.953125 98.910156 139.226562 C 98.910156 150.71875 101.035156 161.882812 105.21875 172.460938 C 104.277344 173.441406 103.964844 174.933594 104.554688 176.246094 C 105.328125 177.972656 107.363281 178.742188 109.085938 177.96875 C 110.8125 177.195312 111.582031 175.160156 110.808594 173.4375 C 110.242188 172.171875 108.996094 171.421875 107.691406 171.417969 C 103.648438 161.171875 101.59375 150.359375 101.59375 139.226562 C 101.59375 123.453125 105.800781 108.070312 113.785156 94.554688 C 114.859375 94.652344 115.953125 94.167969 116.585938 93.199219 " fill-opacity="1" fill-rule="nonzero"/></g><path fill="#a6e9de" d="M 227.15625 68.117188 C 227.183594 68.132812 227.191406 68.136719 227.15625 68.117188 Z M 227.140625 68.113281 C 227.121094 68.101562 227.09375 68.085938 227.058594 68.066406 C 227.089844 68.085938 227.121094 68.101562 227.140625 68.113281 Z M 229.148438 63.25 C 230.445312 63.898438 230.972656 65.476562 230.324219 66.769531 C 229.679688 68.0625 228.101562 68.589844 226.804688 67.945312 C 225.511719 67.296875 224.984375 65.71875 225.632812 64.425781 C 226.277344 63.128906 227.855469 62.605469 229.148438 63.25 Z M 257.453125 86.28125 C 256.714844 85.304688 255.5 84.90625 254.378906 85.160156 C 247.933594 77.46875 240.074219 70.902344 231.386719 65.929688 C 231.519531 64.558594 230.816406 63.179688 229.507812 62.53125 C 227.816406 61.6875 225.753906 62.375 224.910156 64.066406 C 224.066406 65.757812 224.757812 67.820312 226.449219 68.664062 C 227.671875 69.277344 229.089844 69.078125 230.101562 68.285156 C 238.480469 73.085938 246.066406 79.429688 252.292969 86.847656 C 251.84375 87.828125 251.9375 89.015625 252.632812 89.933594 C 253.640625 91.265625 255.539062 91.527344 256.871094 90.519531 C 258.203125 89.511719 258.464844 87.609375 257.453125 86.28125 " fill-opacity="1" fill-rule="nonzero"/><g clip-path="url(#399b89ee55)"><path fill="#a6e9de" d="M 270.003906 142.90625 C 270 142.945312 270 142.972656 270 142.992188 C 270 142.972656 270 142.945312 270.003906 142.90625 Z M 270.015625 142.1875 C 270.015625 142.179688 270.015625 142.179688 270.015625 142.1875 Z M 272.683594 140.03125 C 274.128906 140.058594 275.285156 141.261719 275.253906 142.707031 C 275.222656 144.152344 274.023438 145.304688 272.578125 145.273438 C 271.132812 145.246094 269.976562 144.046875 270.007812 142.601562 C 270.007812 142.710938 270.003906 142.820312 270.003906 142.898438 C 270.003906 142.832031 270.003906 142.734375 270.007812 142.597656 C 270.011719 142.386719 270.015625 142.269531 270.015625 142.214844 C 270.011719 142.28125 270.011719 142.441406 270.007812 142.597656 C 270.039062 141.152344 271.238281 140 272.683594 140.03125 Z M 276.058594 142.722656 C 276.097656 140.832031 274.589844 139.261719 272.703125 139.226562 C 270.8125 139.1875 269.242188 140.691406 269.203125 142.582031 C 269.175781 143.949219 269.957031 145.144531 271.101562 145.714844 C 268.671875 176.703125 249.035156 203.402344 220.105469 215.015625 C 219.316406 214.285156 218.152344 214 217.0625 214.378906 C 215.484375 214.921875 214.648438 216.644531 215.191406 218.226562 C 215.738281 219.804688 217.460938 220.644531 219.042969 220.097656 C 220.195312 219.699219 220.953125 218.667969 221.0625 217.523438 C 235.539062 211.710938 248.078125 202.035156 257.457031 189.398438 C 266.9375 176.628906 272.546875 161.644531 273.78125 145.875 C 275.082031 145.414062 276.027344 144.183594 276.058594 142.722656 C 276.058594 142.726562 276.058594 142.726562 276.058594 142.730469 C 276.058594 142.726562 276.058594 142.726562 276.058594 142.722656 C 276.058594 142.667969 276.058594 142.621094 276.0625 142.570312 C 276.058594 142.621094 276.058594 142.671875 276.058594 142.722656 " fill-opacity="1" fill-rule="nonzero"/></g><g clip-path="url(#7c25f796d5)"><path fill="#a6e9de" d="M 140.464844 202.726562 C 140.457031 202.71875 140.457031 202.71875 140.464844 202.726562 Z M 137.125 203.519531 C 137.984375 202.355469 139.632812 202.109375 140.792969 202.96875 C 140.660156 202.871094 140.53125 202.773438 140.480469 202.738281 C 140.519531 202.765625 140.617188 202.835938 140.792969 202.96875 C 141.003906 203.125 141.097656 203.195312 141.121094 203.214844 C 141.089844 203.1875 140.941406 203.078125 140.792969 202.972656 C 141.957031 203.832031 142.203125 205.476562 141.34375 206.636719 C 140.484375 207.800781 138.835938 208.046875 137.675781 207.1875 C 136.511719 206.328125 136.265625 204.679688 137.125 203.519531 Z M 182.171875 55.214844 C 161.757812 57.027344 142.8125 66.171875 128.5625 81.167969 C 113.59375 96.921875 105.347656 117.539062 105.347656 139.226562 C 105.347656 152.570312 108.390625 165.347656 114.386719 177.195312 C 119.605469 187.496094 127.015625 196.761719 135.933594 204.167969 C 135.570312 205.496094 136.023438 206.96875 137.195312 207.835938 C 138.714844 208.957031 140.867188 208.636719 141.988281 207.117188 C 143.113281 205.597656 142.792969 203.445312 141.273438 202.324219 C 140.171875 201.507812 138.734375 201.457031 137.601562 202.070312 C 118.765625 186.464844 108.03125 163.746094 108.03125 139.226562 C 108.03125 96.816406 140.449219 61.632812 182.351562 57.894531 C 182.898438 58.835938 183.9375 59.449219 185.101562 59.398438 C 186.773438 59.320312 188.0625 57.90625 187.988281 56.238281 C 187.914062 54.570312 186.496094 53.277344 184.828125 53.351562 C 183.617188 53.40625 182.609375 54.167969 182.171875 55.214844 " fill-opacity="1" fill-rule="nonzero"/></g><path fill="#a6e9de" d="M 259.53125 163.535156 C 259.527344 163.5625 259.515625 163.585938 259.511719 163.609375 C 259.515625 163.585938 259.527344 163.5625 259.53125 163.535156 Z M 259.503906 163.625 C 259.496094 163.65625 259.484375 163.679688 259.480469 163.703125 C 259.484375 163.683594 259.496094 163.65625 259.503906 163.625 Z M 259.460938 163.765625 C 259.457031 163.773438 259.457031 163.773438 259.460938 163.765625 Z M 259.660156 163.136719 C 259.664062 163.132812 259.664062 163.128906 259.667969 163.121094 C 259.664062 163.128906 259.664062 163.132812 259.660156 163.136719 Z M 259.691406 163.042969 C 259.703125 163.011719 259.710938 162.992188 259.710938 162.980469 C 259.707031 162.992188 259.703125 163.011719 259.691406 163.042969 Z M 262.886719 161.683594 C 264.265625 162.125 265.023438 163.609375 264.578125 164.984375 C 264.132812 166.363281 262.65625 167.121094 261.277344 166.675781 C 259.902344 166.230469 259.140625 164.75 259.585938 163.375 C 259.605469 163.308594 259.625 163.257812 259.636719 163.210938 C 259.621094 163.261719 259.605469 163.316406 259.585938 163.375 C 260.027344 161.996094 261.511719 161.238281 262.886719 161.683594 Z M 265.414062 165.019531 C 265.390625 165.085938 265.367188 165.15625 265.34375 165.230469 C 265.925781 163.433594 264.933594 161.496094 263.132812 160.917969 C 261.335938 160.335938 259.402344 161.328125 258.820312 163.125 C 258.402344 164.425781 258.804688 165.792969 259.738281 166.671875 C 248.46875 195.386719 220.730469 214.453125 189.695312 214.453125 C 164.191406 214.453125 140.195312 201.253906 126.394531 179.824219 C 126.964844 178.910156 127.027344 177.71875 126.457031 176.71875 C 125.628906 175.269531 123.78125 174.761719 122.328125 175.589844 C 120.878906 176.417969 120.371094 178.269531 121.199219 179.71875 C 121.808594 180.78125 122.960938 181.335938 124.109375 181.230469 C 130.777344 191.609375 139.863281 200.328125 150.53125 206.554688 C 162.382812 213.476562 175.925781 217.132812 189.695312 217.132812 C 221.855469 217.132812 250.597656 197.363281 262.257812 167.597656 C 263.636719 167.527344 264.894531 166.621094 265.34375 165.230469 C 265.285156 165.417969 265.226562 165.601562 265.195312 165.695312 C 265.21875 165.621094 265.265625 165.480469 265.34375 165.230469 C 265.371094 165.148438 265.394531 165.082031 265.414062 165.019531 " fill-opacity="1" fill-rule="nonzero"/><path fill="#a6e9de" d="M 113.15625 140.300781 C 111.707031 140.292969 110.539062 139.109375 110.546875 137.664062 C 110.550781 136.214844 111.734375 135.046875 113.179688 135.054688 C 114.628906 135.058594 115.796875 136.242188 115.789062 137.6875 C 115.792969 137.328125 115.792969 136.964844 115.789062 137.6875 C 115.789062 137.90625 115.789062 138.027344 115.789062 138.078125 C 115.789062 138.011719 115.789062 137.851562 115.789062 137.6875 C 115.785156 139.136719 114.601562 140.308594 113.15625 140.300781 Z M 189.695312 62.660156 C 189.652344 60.988281 188.265625 59.667969 186.59375 59.710938 C 185.378906 59.742188 184.351562 60.488281 183.894531 61.535156 C 165.058594 62.929688 147.480469 71.074219 134.128906 84.667969 C 120.871094 98.167969 113.0625 115.75 111.933594 134.484375 C 110.65625 134.976562 109.746094 136.210938 109.738281 137.660156 C 109.730469 139.550781 111.261719 141.097656 113.152344 141.105469 C 115.042969 141.117188 116.585938 139.582031 116.597656 137.691406 C 116.601562 136.316406 115.789062 135.125 114.617188 134.574219 C 116.902344 97.128906 146.582031 67.003906 184.035156 64.214844 C 184.566406 65.160156 185.589844 65.789062 186.746094 65.761719 C 188.417969 65.714844 189.738281 64.328125 189.695312 62.660156 " fill-opacity="1" fill-rule="nonzero"/><path fill="#a6e9de" d="M 136.269531 98.023438 C 136.277344 98.007812 136.277344 98.007812 136.269531 98.023438 Z M 136.246094 98.050781 C 136.214844 98.097656 136.152344 98.179688 136.050781 98.320312 C 136.128906 98.210938 136.207031 98.105469 136.246094 98.050781 Z M 136.007812 98.375 C 135.941406 98.464844 135.894531 98.535156 135.859375 98.582031 C 135.898438 98.527344 135.953125 98.453125 136.007812 98.375 Z M 135.84375 98.601562 C 135.828125 98.621094 135.816406 98.640625 135.808594 98.652344 C 135.816406 98.636719 135.828125 98.621094 135.84375 98.601562 Z M 135.792969 98.671875 C 135.78125 98.6875 135.78125 98.6875 135.792969 98.671875 Z M 135.464844 94.679688 C 136.632812 95.535156 136.882812 97.179688 136.03125 98.347656 C 135.175781 99.515625 133.53125 99.769531 132.363281 98.914062 C 131.195312 98.058594 130.941406 96.414062 131.796875 95.246094 C 132.652344 94.078125 134.296875 93.828125 135.464844 94.679688 Z M 238.476562 87.039062 C 225.179688 74.582031 207.972656 67.753906 189.695312 67.753906 C 178.335938 67.753906 167.46875 70.355469 157.394531 75.480469 C 148.78125 79.859375 141.039062 86.054688 134.820312 93.496094 C 133.488281 93.132812 132.011719 93.59375 131.148438 94.773438 C 130.03125 96.296875 130.363281 98.445312 131.886719 99.5625 C 133.410156 100.679688 135.5625 100.347656 136.679688 98.824219 C 137.488281 97.71875 137.535156 96.289062 136.921875 95.160156 C 150.058594 79.40625 169.109375 70.4375 189.695312 70.4375 C 207.265625 70.4375 223.808594 76.992188 236.601562 88.957031 C 236.269531 89.980469 236.496094 91.152344 237.292969 91.984375 C 238.445312 93.191406 240.363281 93.234375 241.566406 92.078125 C 242.777344 90.921875 242.816406 89.007812 241.664062 87.800781 C 240.816406 86.917969 239.5625 86.660156 238.476562 87.039062 " fill-opacity="1" fill-rule="nonzero"/><path fill="#a6e9de" d="M 188.839844 200.292969 C 188.847656 200.292969 188.863281 200.292969 188.886719 200.292969 C 188.863281 200.292969 188.847656 200.292969 188.839844 200.292969 Z M 188.914062 200.292969 C 188.957031 200.289062 189.019531 200.289062 189.101562 200.289062 C 189.027344 200.289062 188.960938 200.289062 188.914062 200.292969 Z M 189.570312 200.277344 C 189.589844 200.277344 189.605469 200.277344 189.617188 200.277344 C 189.601562 200.277344 189.589844 200.277344 189.570312 200.277344 Z M 189.65625 200.277344 C 189.667969 200.277344 189.667969 200.277344 189.65625 200.277344 Z M 186.671875 202.953125 C 186.648438 201.507812 187.800781 200.308594 189.246094 200.28125 C 189.246094 200.28125 189.242188 200.28125 189.242188 200.28125 C 189.242188 200.28125 189.246094 200.28125 189.246094 200.28125 C 189.3125 200.28125 189.363281 200.28125 189.410156 200.28125 C 189.359375 200.28125 189.304688 200.28125 189.246094 200.28125 C 190.695312 200.257812 191.890625 201.414062 191.917969 202.859375 C 191.941406 204.308594 190.789062 205.503906 189.339844 205.53125 C 187.894531 205.554688 186.699219 204.398438 186.671875 202.953125 Z M 189.355469 206.335938 C 191.246094 206.300781 192.757812 204.734375 192.722656 202.847656 C 192.6875 200.957031 191.125 199.445312 189.234375 199.480469 C 187.878906 199.503906 186.71875 200.320312 186.183594 201.476562 C 153.449219 199.644531 127.34375 172.382812 127.34375 139.226562 C 127.34375 116.308594 139.632812 95.644531 159.597656 84.632812 C 160.464844 85.261719 161.640625 85.414062 162.675781 84.925781 C 164.1875 84.210938 164.832031 82.40625 164.117188 80.894531 C 163.40625 79.386719 161.601562 78.738281 160.089844 79.453125 C 158.976562 79.980469 158.335938 81.097656 158.359375 82.253906 C 148.769531 87.550781 140.640625 95.183594 134.742188 104.480469 C 128.148438 114.871094 124.664062 126.886719 124.664062 139.226562 C 124.664062 173.832031 151.929688 202.289062 186.109375 204.160156 C 186.617188 205.453125 187.886719 206.359375 189.355469 206.335938 " fill-opacity="1" fill-rule="nonzero"/><path fill="#a6e9de" d="M 139.734375 161.359375 C 139.738281 161.363281 139.742188 161.367188 139.742188 161.375 C 139.738281 161.367188 139.738281 161.363281 139.734375 161.359375 Z M 139.949219 161.796875 C 139.964844 161.820312 139.976562 161.847656 139.988281 161.871094 C 139.976562 161.84375 139.964844 161.820312 139.949219 161.796875 Z M 140.054688 162.011719 C 140.074219 162.050781 140.085938 162.070312 140.09375 162.082031 C 140.085938 162.070312 140.074219 162.042969 140.054688 162.011719 Z M 136.398438 160.519531 C 137.699219 159.882812 139.273438 160.417969 139.910156 161.714844 C 140.550781 163.015625 140.015625 164.589844 138.714844 165.226562 C 137.417969 165.867188 135.84375 165.328125 135.203125 164.03125 C 134.566406 162.734375 135.101562 161.15625 136.398438 160.519531 Z M 131.101562 139.226562 C 131.101562 146.585938 132.445312 153.726562 135.097656 160.492188 C 134.121094 161.503906 133.828125 163.058594 134.480469 164.386719 C 134.394531 164.207031 134.304688 164.027344 134.265625 163.945312 C 134.296875 164.011719 134.363281 164.144531 134.480469 164.386719 C 134.597656 164.625 134.664062 164.757812 134.699219 164.824219 C 134.65625 164.742188 134.570312 164.566406 134.480469 164.386719 C 135.316406 166.082031 137.375 166.785156 139.070312 165.949219 C 140.765625 165.117188 141.46875 163.058594 140.632812 161.363281 C 140.042969 160.15625 138.828125 159.457031 137.570312 159.449219 C 135.058594 153.015625 133.785156 146.226562 133.785156 139.226562 C 133.785156 108.394531 158.867188 83.3125 189.695312 83.3125 C 193.691406 83.3125 197.660156 83.742188 201.535156 84.582031 C 201.769531 85.621094 202.542969 86.5 203.636719 86.820312 C 205.238281 87.292969 206.921875 86.371094 207.390625 84.769531 C 207.859375 83.164062 206.9375 81.484375 205.335938 81.015625 C 204.148438 80.667969 202.925781 81.082031 202.175781 81.96875 C 198.089844 81.082031 193.90625 80.632812 189.695312 80.632812 C 157.386719 80.632812 131.101562 106.917969 131.101562 139.226562 " fill-opacity="1" fill-rule="nonzero"/><path fill="#a6e9de" d="M 223.882812 173.152344 C 223.859375 173.179688 223.832031 173.207031 223.816406 173.226562 C 223.832031 173.207031 223.855469 173.183594 223.882812 173.152344 Z M 224.152344 172.859375 C 224.179688 172.832031 224.203125 172.808594 224.21875 172.785156 C 224.199219 172.808594 224.175781 172.832031 224.152344 172.859375 Z M 224.285156 172.71875 C 224.355469 172.640625 224.34375 172.65625 224.285156 172.71875 Z M 227.757812 172.824219 C 228.820312 173.804688 228.886719 175.46875 227.90625 176.53125 C 226.921875 177.59375 225.261719 177.660156 224.199219 176.679688 C 223.136719 175.695312 223.070312 174.035156 224.050781 172.972656 C 224.039062 172.984375 224.027344 172.996094 224.015625 173.007812 C 224.027344 172.996094 224.039062 172.984375 224.050781 172.972656 C 224.070312 172.949219 224.085938 172.929688 224.101562 172.914062 C 224.085938 172.929688 224.070312 172.949219 224.050781 172.96875 C 225.03125 171.90625 226.695312 171.839844 227.757812 172.824219 Z M 228.496094 177.078125 C 229.777344 175.6875 229.691406 173.515625 228.304688 172.230469 C 226.914062 170.949219 224.742188 171.035156 223.460938 172.425781 C 222.546875 173.414062 222.332031 174.796875 222.78125 175.976562 C 213.675781 184.203125 202.050781 188.699219 189.695312 188.699219 C 162.414062 188.699219 140.222656 166.503906 140.222656 139.226562 C 140.222656 113.941406 159.269531 92.875 184.082031 90.070312 C 184.628906 90.972656 185.636719 91.566406 186.769531 91.53125 C 188.441406 91.476562 189.75 90.078125 189.695312 88.410156 C 189.640625 86.738281 188.242188 85.429688 186.574219 85.484375 C 185.332031 85.523438 184.289062 86.308594 183.859375 87.394531 C 157.660156 90.3125 137.539062 112.542969 137.539062 139.226562 C 137.539062 167.984375 160.9375 191.382812 189.695312 191.382812 C 202.753906 191.382812 215.039062 186.617188 224.648438 177.90625 C 225.941406 178.449219 227.492188 178.164062 228.496094 177.078125 " fill-opacity="1" fill-rule="nonzero"/><path fill="#a6e9de" d="M 231.335938 142.144531 C 231.335938 142.152344 231.335938 142.164062 231.335938 142.179688 C 231.335938 142.164062 231.335938 142.152344 231.335938 142.144531 Z M 231.332031 142.234375 C 231.332031 142.300781 231.328125 142.386719 231.324219 142.480469 C 231.328125 142.371094 231.332031 142.289062 231.332031 142.234375 Z M 231.308594 142.890625 C 231.308594 142.898438 231.308594 142.902344 231.308594 142.910156 C 231.308594 142.902344 231.308594 142.898438 231.308594 142.890625 Z M 231.304688 142.960938 C 231.304688 142.96875 231.304688 142.96875 231.304688 142.960938 Z M 234.042969 140.03125 C 235.488281 140.085938 236.617188 141.304688 236.5625 142.75 C 236.507812 144.195312 235.289062 145.328125 233.84375 145.273438 C 232.398438 145.214844 231.265625 143.996094 231.320312 142.550781 C 231.378906 141.105469 232.597656 139.976562 234.042969 140.03125 Z M 237.367188 142.78125 C 237.441406 140.894531 235.960938 139.296875 234.074219 139.226562 C 232.183594 139.152344 230.589844 140.628906 230.515625 142.519531 C 230.464844 143.839844 231.175781 145.015625 232.25 145.628906 C 230.289062 158.644531 222.378906 170.152344 210.871094 176.683594 C 210.023438 176.070312 208.882812 175.910156 207.859375 176.367188 C 206.335938 177.050781 205.652344 178.839844 206.335938 180.367188 C 207.019531 181.890625 208.808594 182.574219 210.332031 181.890625 C 211.480469 181.378906 212.148438 180.238281 212.121094 179.058594 C 224.410156 172.113281 232.851562 159.828125 234.917969 145.933594 C 236.285156 145.527344 237.308594 144.285156 237.367188 142.78125 " fill-opacity="1" fill-rule="nonzero"/><path fill="#a6e9de" d="M 175.386719 178.472656 C 175.382812 178.472656 175.382812 178.472656 175.382812 178.472656 C 175.382812 178.472656 175.386719 178.472656 175.386719 178.472656 Z M 174.222656 183.605469 C 172.839844 183.175781 172.0625 181.703125 172.492188 180.324219 C 172.917969 178.941406 174.390625 178.164062 175.773438 178.59375 C 175.625 178.546875 175.480469 178.5 175.414062 178.480469 C 175.464844 178.5 175.574219 178.53125 175.773438 178.59375 C 175.988281 178.660156 176.101562 178.695312 176.148438 178.710938 C 176.089844 178.691406 175.933594 178.644531 175.773438 178.59375 C 177.15625 179.019531 177.929688 180.492188 177.503906 181.875 C 177.074219 183.257812 175.605469 184.03125 174.222656 183.605469 Z M 147.246094 146.308594 C 148.117188 145.722656 148.660156 144.703125 148.578125 143.582031 C 148.460938 141.914062 147.011719 140.660156 145.34375 140.78125 C 143.679688 140.898438 142.421875 142.347656 142.542969 144.015625 C 142.632812 145.265625 143.46875 146.285156 144.589844 146.664062 C 147.109375 161.953125 157.339844 175.03125 171.574219 181.199219 C 171.617188 182.621094 172.546875 183.929688 173.984375 184.375 C 173.792969 184.316406 173.605469 184.257812 173.515625 184.226562 C 173.585938 184.25 173.730469 184.292969 173.984375 184.375 C 174.257812 184.457031 174.40625 184.503906 174.46875 184.523438 C 174.390625 184.5 174.1875 184.4375 173.984375 184.375 C 175.789062 184.933594 177.714844 183.917969 178.273438 182.113281 C 178.832031 180.308594 177.816406 178.382812 176.011719 177.824219 C 174.746094 177.433594 173.425781 177.816406 172.554688 178.699219 C 159.222656 172.890625 149.636719 160.636719 147.246094 146.308594 " fill-opacity="1" fill-rule="nonzero"/></svg>