<svg xmlns="http://www.w3.org/2000/svg" xmlns:xlink="http://www.w3.org/1999/xlink" width="500" zoomAndPan="magnify" viewBox="0 0 375 374.999991" height="500" preserveAspectRatio="xMidYMid meet" version="1.0"><defs><clipPath id="07701587d3"><path d="M 62 288 L 342 288 L 342 367.554688 L 62 367.554688 Z M 62 288 " clip-rule="nonzero"/></clipPath><clipPath id="5730341d82"><path d="M 20 7.554688 L 189 7.554688 L 189 324 L 20 324 Z M 20 7.554688 " clip-rule="nonzero"/></clipPath></defs><g clip-path="url(#07701587d3)"><path fill="#2aa297" d="M 330.265625 292.585938 C 330.289062 292.5625 330.324219 292.515625 330.367188 292.453125 C 330.324219 292.511719 330.289062 292.558594 330.265625 292.585938 Z M 331.757812 299.441406 C 329.414062 297.65625 328.960938 294.296875 330.75 291.953125 C 330.660156 292.070312 330.574219 292.179688 330.5 292.285156 C 330.570312 292.191406 330.648438 292.089844 330.75 291.953125 C 331.0625 291.546875 331.207031 291.355469 331.25 291.300781 C 331.191406 291.375 330.972656 291.664062 330.75 291.953125 C 332.535156 289.613281 335.890625 289.160156 338.238281 290.945312 C 340.578125 292.734375 341.03125 296.089844 339.242188 298.433594 C 337.460938 300.773438 334.101562 301.226562 331.757812 299.441406 Z M 64.261719 312.296875 C 61.933594 314.773438 62.054688 318.671875 64.535156 321 C 66.328125 322.6875 68.863281 323.082031 71.011719 322.238281 C 104.652344 351.421875 147.371094 367.429688 191.980469 367.429688 C 220.792969 367.429688 248.414062 360.953125 274.078125 348.179688 C 296.519531 337.015625 316.785156 321.085938 333.058594 301.890625 C 335.746094 302.664062 338.753906 301.777344 340.546875 299.425781 C 342.882812 296.367188 342.289062 291.976562 339.226562 289.644531 C 336.167969 287.3125 331.78125 287.898438 329.445312 290.960938 C 327.746094 293.1875 327.605469 296.117188 328.828125 298.445312 C 294.578125 338.902344 245.078125 361.96875 191.980469 361.96875 C 148.730469 361.96875 107.308594 346.457031 74.679688 318.183594 C 75.28125 316.042969 74.703125 313.648438 72.972656 312.023438 C 70.492188 309.695312 66.589844 309.8125 64.261719 312.296875 " fill-opacity="1" fill-rule="nonzero"/></g><path fill="#2aa297" d="M 30.195312 253.671875 C 30.183594 253.644531 30.164062 253.59375 30.132812 253.523438 C 30.164062 253.601562 30.1875 253.648438 30.195312 253.671875 Z M 29.648438 252.453125 C 29.496094 252.113281 29.429688 251.964844 29.648438 252.453125 Z M 22.796875 250.226562 C 25.484375 249.019531 28.648438 250.222656 29.855469 252.914062 C 31.0625 255.601562 29.859375 258.765625 27.171875 259.972656 C 24.484375 261.179688 21.316406 259.976562 20.109375 257.289062 C 18.902344 254.601562 20.109375 251.433594 22.796875 250.226562 Z M 43.113281 88.855469 C 44.976562 86.011719 44.183594 82.191406 41.335938 80.328125 C 38.488281 78.464844 34.671875 79.261719 32.808594 82.105469 C 31.445312 84.1875 31.511719 86.785156 32.75 88.761719 C 15.96875 117.140625 7.125 149.445312 7.125 182.578125 C 7.125 205.984375 11.453125 228.710938 19.96875 250.253906 C 18.046875 252.25 17.414062 255.285156 18.617188 257.960938 C 20.191406 261.472656 24.332031 263.042969 27.84375 261.46875 C 31.355469 259.890625 32.925781 255.75 31.351562 252.242188 C 30.195312 249.664062 27.65625 248.136719 25 248.128906 C 16.769531 227.261719 12.585938 205.246094 12.585938 182.578125 C 12.585938 150.460938 21.152344 119.136719 37.40625 91.617188 C 39.597656 91.816406 41.824219 90.828125 43.113281 88.855469 " fill-opacity="1" fill-rule="nonzero"/><path fill="#2aa297" d="M 268.253906 37.789062 C 268.316406 37.816406 268.328125 37.824219 268.253906 37.789062 Z M 268.222656 37.777344 C 268.183594 37.753906 268.128906 37.726562 268.054688 37.6875 C 268.121094 37.722656 268.179688 37.753906 268.222656 37.777344 Z M 272.316406 27.875 C 274.953125 29.191406 276.027344 32.40625 274.710938 35.039062 C 273.390625 37.675781 270.179688 38.75 267.542969 37.433594 C 264.910156 36.121094 263.835938 32.90625 265.152344 30.269531 C 266.46875 27.632812 269.679688 26.5625 272.316406 27.875 Z M 329.949219 74.769531 C 328.445312 72.785156 325.96875 71.972656 323.683594 72.488281 C 310.5625 56.828125 294.558594 43.457031 276.871094 33.335938 C 277.140625 30.542969 275.707031 27.738281 273.046875 26.410156 C 269.601562 24.695312 265.402344 26.097656 263.683594 29.539062 C 261.964844 32.984375 263.371094 37.179688 266.8125 38.902344 C 269.308594 40.144531 272.191406 39.746094 274.25 38.128906 C 291.316406 47.90625 306.765625 60.820312 319.441406 75.921875 C 318.527344 77.921875 318.710938 80.339844 320.128906 82.210938 C 322.1875 84.925781 326.050781 85.453125 328.761719 83.402344 C 331.476562 81.347656 332.007812 77.480469 329.949219 74.769531 " fill-opacity="1" fill-rule="nonzero"/><path fill="#2aa297" d="M 355.5 190.074219 C 355.496094 190.148438 355.496094 190.207031 355.496094 190.246094 C 355.496094 190.210938 355.496094 190.152344 355.5 190.074219 Z M 355.527344 188.613281 C 355.527344 188.597656 355.527344 188.597656 355.527344 188.613281 Z M 360.960938 184.214844 C 363.90625 184.277344 366.253906 186.722656 366.191406 189.664062 C 366.128906 192.609375 363.6875 194.957031 360.742188 194.894531 C 357.796875 194.835938 355.449219 192.394531 355.511719 189.449219 C 355.507812 189.671875 355.503906 189.894531 355.5 190.058594 C 355.5 189.921875 355.503906 189.722656 355.511719 189.445312 C 355.519531 189.011719 355.527344 188.773438 355.527344 188.664062 C 355.523438 188.804688 355.519531 189.125 355.511719 189.445312 C 355.574219 186.503906 358.019531 184.15625 360.960938 184.214844 Z M 367.828125 189.699219 C 367.910156 185.851562 364.84375 182.65625 360.996094 182.578125 C 357.144531 182.496094 353.949219 185.5625 353.875 189.414062 C 353.816406 192.195312 355.410156 194.628906 357.742188 195.796875 C 352.789062 258.890625 312.808594 313.257812 253.902344 336.90625 C 252.289062 335.414062 249.925781 334.835938 247.703125 335.601562 C 244.492188 336.710938 242.785156 340.222656 243.894531 343.4375 C 245.007812 346.65625 248.515625 348.359375 251.730469 347.246094 C 254.085938 346.4375 255.621094 344.335938 255.847656 342.007812 C 285.324219 330.175781 310.855469 310.46875 329.953125 284.742188 C 349.261719 258.742188 360.679688 228.230469 363.195312 196.121094 C 365.84375 195.175781 367.769531 192.675781 367.828125 189.699219 C 367.828125 189.703125 367.828125 189.710938 367.828125 189.714844 C 367.828125 189.710938 367.828125 189.703125 367.828125 189.699219 C 367.832031 189.585938 367.832031 189.488281 367.835938 189.390625 C 367.832031 189.492188 367.832031 189.597656 367.828125 189.699219 " fill-opacity="1" fill-rule="nonzero"/><g clip-path="url(#5730341d82)"><path fill="#2aa297" d="M 91.738281 311.882812 C 91.71875 311.863281 91.71875 311.863281 91.738281 311.882812 Z M 84.933594 313.492188 C 86.6875 311.125 90.039062 310.625 92.40625 312.371094 C 92.136719 312.175781 91.867188 311.976562 91.765625 311.898438 C 91.847656 311.960938 92.042969 312.101562 92.40625 312.371094 C 92.828125 312.6875 93.023438 312.828125 93.074219 312.867188 C 93.003906 312.816406 92.707031 312.597656 92.40625 312.375 C 94.773438 314.128906 95.273438 317.476562 93.523438 319.84375 C 91.769531 322.214844 88.421875 322.714844 86.054688 320.960938 C 83.683594 319.210938 83.183594 315.859375 84.933594 313.492188 Z M 176.664062 11.519531 C 135.089844 15.207031 96.515625 33.828125 67.503906 64.359375 C 37.019531 96.441406 20.234375 138.421875 20.234375 182.578125 C 20.234375 209.753906 26.425781 235.765625 38.636719 259.890625 C 49.257812 280.871094 64.347656 299.734375 82.507812 314.8125 C 81.765625 317.515625 82.695312 320.515625 85.078125 322.28125 C 88.171875 324.566406 92.550781 323.914062 94.839844 320.820312 C 97.128906 317.726562 96.476562 313.34375 93.378906 311.058594 C 91.136719 309.394531 88.214844 309.292969 85.90625 310.539062 C 47.554688 278.769531 25.695312 232.507812 25.695312 182.578125 C 25.695312 96.226562 91.707031 24.582031 177.023438 16.972656 C 178.140625 18.890625 180.257812 20.140625 182.625 20.03125 C 186.027344 19.878906 188.65625 16.996094 188.503906 13.597656 C 188.351562 10.199219 185.46875 7.566406 182.070312 7.722656 C 179.605469 7.832031 177.550781 9.382812 176.664062 11.519531 " fill-opacity="1" fill-rule="nonzero"/></g><path fill="#2aa297" d="M 334.183594 232.078125 C 334.167969 232.132812 334.152344 232.183594 334.136719 232.230469 C 334.148438 232.183594 334.167969 232.132812 334.183594 232.078125 Z M 334.125 232.257812 C 334.105469 232.320312 334.085938 232.375 334.074219 232.421875 C 334.085938 232.378906 334.105469 232.324219 334.125 232.257812 Z M 334.03125 232.542969 C 334.027344 232.558594 334.027344 232.558594 334.03125 232.542969 Z M 334.441406 231.269531 C 334.445312 231.257812 334.449219 231.25 334.457031 231.238281 C 334.449219 231.25 334.445312 231.257812 334.441406 231.269531 Z M 334.503906 231.078125 C 334.527344 231.011719 334.542969 230.96875 334.546875 230.949219 C 334.539062 230.96875 334.527344 231.011719 334.503906 231.078125 Z M 341.011719 228.304688 C 343.816406 229.207031 345.363281 232.226562 344.457031 235.027344 C 343.550781 237.832031 340.539062 239.378906 337.734375 238.46875 C 334.929688 237.566406 333.386719 234.550781 334.289062 231.75 C 334.332031 231.617188 334.367188 231.511719 334.398438 231.417969 C 334.363281 231.523438 334.328125 231.632812 334.289062 231.75 C 335.191406 228.945312 338.210938 227.402344 341.011719 228.304688 Z M 346.15625 235.101562 C 346.109375 235.234375 346.066406 235.378906 346.015625 235.53125 C 347.199219 231.867188 345.175781 227.929688 341.515625 226.746094 C 337.851562 225.566406 333.914062 227.582031 332.730469 231.246094 C 331.875 233.890625 332.699219 236.675781 334.597656 238.46875 C 311.652344 296.929688 255.167969 335.753906 191.980469 335.753906 C 140.042969 335.753906 91.183594 308.878906 63.082031 265.242188 C 64.242188 263.382812 64.375 260.960938 63.210938 258.921875 C 61.523438 255.96875 57.761719 254.9375 54.804688 256.625 C 51.851562 258.308594 50.824219 262.078125 52.507812 265.027344 C 53.742188 267.195312 56.097656 268.320312 58.429688 268.105469 C 72.011719 289.242188 90.511719 306.992188 112.230469 319.675781 C 136.363281 333.769531 163.941406 341.214844 191.980469 341.214844 C 257.460938 341.214844 315.992188 300.957031 339.726562 240.351562 C 342.535156 240.203125 345.101562 238.363281 346.015625 235.53125 C 345.890625 235.910156 345.773438 236.289062 345.710938 236.472656 C 345.757812 236.328125 345.851562 236.039062 346.015625 235.53125 C 346.070312 235.359375 346.117188 235.222656 346.15625 235.101562 " fill-opacity="1" fill-rule="nonzero"/><path fill="#2aa297" d="M 36.125 184.765625 C 33.179688 184.753906 30.796875 182.34375 30.8125 179.398438 C 30.824219 176.453125 33.230469 174.070312 36.179688 174.082031 C 39.125 174.097656 41.507812 176.503906 41.492188 179.449219 C 41.5 178.714844 41.5 177.976562 41.492188 179.449219 C 41.492188 179.894531 41.492188 180.136719 41.492188 180.242188 C 41.492188 180.105469 41.492188 179.78125 41.492188 179.449219 C 41.480469 182.398438 39.070312 184.78125 36.125 184.765625 Z M 191.980469 26.671875 C 191.894531 23.269531 189.0625 20.582031 185.664062 20.667969 C 183.1875 20.730469 181.09375 22.253906 180.167969 24.386719 C 141.816406 27.222656 106.019531 43.804688 78.835938 71.484375 C 51.835938 98.980469 35.941406 134.777344 33.640625 172.921875 C 31.042969 173.925781 29.1875 176.441406 29.171875 179.390625 C 29.15625 183.238281 32.269531 186.386719 36.121094 186.40625 C 39.96875 186.425781 43.113281 183.308594 43.132812 179.457031 C 43.148438 176.652344 41.488281 174.226562 39.101562 173.109375 C 43.757812 96.859375 104.191406 35.523438 180.449219 29.84375 C 181.53125 31.769531 183.613281 33.046875 185.976562 32.988281 C 189.378906 32.898438 192.066406 30.074219 191.980469 26.671875 " fill-opacity="1" fill-rule="nonzero"/><path fill="#2aa297" d="M 83.191406 98.679688 C 83.210938 98.652344 83.210938 98.652344 83.191406 98.679688 Z M 83.144531 98.742188 C 83.078125 98.835938 82.953125 99.003906 82.75 99.28125 C 82.910156 99.0625 83.0625 98.851562 83.144531 98.742188 Z M 82.660156 99.402344 C 82.527344 99.582031 82.425781 99.722656 82.355469 99.820312 C 82.441406 99.707031 82.550781 99.554688 82.660156 99.402344 Z M 82.324219 99.859375 C 82.292969 99.902344 82.269531 99.9375 82.25 99.960938 C 82.269531 99.933594 82.296875 99.898438 82.324219 99.859375 Z M 82.222656 100.003906 C 82.195312 100.035156 82.199219 100.03125 82.222656 100.003906 Z M 81.550781 91.878906 C 83.929688 93.617188 84.445312 96.964844 82.703125 99.34375 C 80.960938 101.71875 77.613281 102.234375 75.238281 100.496094 C 72.863281 98.753906 72.34375 95.40625 74.085938 93.03125 C 75.828125 90.652344 79.175781 90.136719 81.550781 91.878906 Z M 291.304688 76.316406 C 264.234375 50.953125 229.195312 37.050781 191.980469 37.050781 C 168.851562 37.050781 146.722656 42.339844 126.210938 52.777344 C 108.671875 61.695312 92.90625 74.308594 80.238281 89.464844 C 77.53125 88.722656 74.523438 89.664062 72.765625 92.0625 C 70.492188 95.164062 71.164062 99.542969 74.269531 101.816406 C 77.371094 104.089844 81.75 103.414062 84.023438 100.3125 C 85.671875 98.066406 85.765625 95.152344 84.515625 92.851562 C 111.265625 60.777344 150.058594 42.511719 191.980469 42.511719 C 227.753906 42.511719 261.441406 55.863281 287.488281 80.222656 C 286.808594 82.308594 287.269531 84.691406 288.894531 86.386719 C 291.242188 88.839844 295.144531 88.929688 297.601562 86.578125 C 300.0625 84.226562 300.144531 80.324219 297.792969 77.863281 C 296.066406 76.066406 293.515625 75.542969 291.304688 76.316406 " fill-opacity="1" fill-rule="nonzero"/><path fill="#2aa297" d="M 190.238281 306.917969 C 190.253906 306.917969 190.28125 306.917969 190.328125 306.917969 C 190.285156 306.917969 190.253906 306.917969 190.238281 306.917969 Z M 190.390625 306.917969 C 190.472656 306.914062 190.601562 306.914062 190.769531 306.910156 C 190.621094 306.914062 190.484375 306.914062 190.390625 306.917969 Z M 191.726562 306.890625 C 191.761719 306.890625 191.792969 306.890625 191.816406 306.890625 C 191.789062 306.890625 191.761719 306.890625 191.726562 306.890625 Z M 191.894531 306.890625 C 191.921875 306.886719 191.921875 306.886719 191.894531 306.890625 Z M 185.820312 312.34375 C 185.769531 309.394531 188.125 306.957031 191.066406 306.902344 C 191.0625 306.902344 191.058594 306.902344 191.054688 306.902344 C 191.058594 306.902344 191.0625 306.902344 191.066406 306.902344 C 191.199219 306.902344 191.300781 306.898438 191.398438 306.898438 C 191.292969 306.898438 191.179688 306.902344 191.066406 306.902344 C 194.015625 306.851562 196.449219 309.207031 196.503906 312.148438 C 196.554688 315.097656 194.203125 317.535156 191.257812 317.585938 C 188.3125 317.636719 185.875 315.285156 185.820312 312.34375 Z M 191.285156 319.226562 C 195.136719 319.15625 198.210938 315.96875 198.140625 312.121094 C 198.070312 308.273438 194.886719 305.199219 191.039062 305.265625 C 188.277344 305.316406 185.917969 306.976562 184.828125 309.332031 C 118.175781 305.605469 65.023438 250.089844 65.023438 182.578125 C 65.023438 135.917969 90.039062 93.839844 130.695312 71.417969 C 132.457031 72.699219 134.851562 73.007812 136.960938 72.011719 C 140.039062 70.554688 141.355469 66.882812 139.898438 63.804688 C 138.445312 60.730469 134.773438 59.417969 131.699219 60.871094 C 129.429688 61.941406 128.125 64.21875 128.175781 66.574219 C 108.644531 77.355469 92.09375 92.898438 80.085938 111.828125 C 66.65625 132.988281 59.558594 157.453125 59.558594 182.578125 C 59.558594 253.042969 115.082031 310.984375 184.675781 314.796875 C 185.714844 317.429688 188.296875 319.28125 191.285156 319.226562 " fill-opacity="1" fill-rule="nonzero"/><path fill="#2aa297" d="M 90.25 227.644531 C 90.253906 227.652344 90.257812 227.664062 90.265625 227.675781 C 90.257812 227.664062 90.253906 227.65625 90.25 227.644531 Z M 90.6875 228.535156 C 90.714844 228.589844 90.738281 228.640625 90.761719 228.683594 C 90.738281 228.636719 90.714844 228.585938 90.6875 228.535156 Z M 90.902344 228.972656 C 90.941406 229.050781 90.964844 229.097656 90.976562 229.121094 C 90.960938 229.09375 90.9375 229.042969 90.902344 228.972656 Z M 83.457031 225.9375 C 86.101562 224.640625 89.308594 225.730469 90.609375 228.375 C 91.910156 231.019531 90.816406 234.222656 88.171875 235.523438 C 85.527344 236.824219 82.324219 235.730469 81.023438 233.089844 C 79.722656 230.445312 80.816406 227.238281 83.457031 225.9375 Z M 72.667969 182.578125 C 72.667969 197.566406 75.40625 212.101562 80.804688 225.882812 C 78.820312 227.945312 78.222656 231.105469 79.550781 233.8125 C 79.371094 233.445312 79.195312 233.082031 79.109375 232.914062 C 79.175781 233.046875 79.3125 233.320312 79.550781 233.8125 C 79.792969 234.296875 79.925781 234.570312 79.992188 234.703125 C 79.910156 234.535156 79.730469 234.171875 79.550781 233.8125 C 81.253906 237.261719 85.445312 238.695312 88.894531 236.996094 C 92.347656 235.296875 93.777344 231.105469 92.078125 227.652344 C 90.871094 225.195312 88.402344 223.773438 85.839844 223.757812 C 80.722656 210.652344 78.128906 196.832031 78.128906 182.578125 C 78.128906 119.800781 129.203125 68.730469 191.980469 68.730469 C 200.113281 68.730469 208.195312 69.605469 216.085938 71.3125 C 216.5625 73.425781 218.136719 75.21875 220.363281 75.875 C 223.625 76.832031 227.050781 74.960938 228.007812 71.691406 C 228.960938 68.429688 227.089844 65.003906 223.828125 64.046875 C 221.410156 63.339844 218.914062 64.183594 217.390625 65.988281 C 209.070312 64.183594 200.550781 63.265625 191.980469 63.265625 C 126.191406 63.265625 72.667969 116.789062 72.667969 182.578125 " fill-opacity="1" fill-rule="nonzero"/><path fill="#2aa297" d="M 261.589844 251.660156 C 261.539062 251.71875 261.492188 251.769531 261.457031 251.8125 C 261.492188 251.773438 261.535156 251.722656 261.589844 251.660156 Z M 262.144531 251.0625 C 262.191406 251.007812 262.238281 250.957031 262.277344 250.914062 C 262.238281 250.960938 262.191406 251.011719 262.144531 251.0625 Z M 262.410156 250.773438 C 262.554688 250.617188 262.527344 250.644531 262.410156 250.773438 Z M 269.480469 250.988281 C 271.644531 252.984375 271.777344 256.375 269.78125 258.535156 C 267.78125 260.699219 264.394531 260.839844 262.230469 258.839844 C 260.070312 256.839844 259.933594 253.457031 261.933594 251.292969 C 261.910156 251.316406 261.886719 251.335938 261.863281 251.363281 C 261.886719 251.335938 261.910156 251.316406 261.933594 251.292969 C 261.972656 251.246094 262.003906 251.210938 262.039062 251.171875 C 262.003906 251.210938 261.972656 251.25 261.933594 251.289062 C 263.929688 249.125 267.316406 248.988281 269.480469 250.988281 Z M 270.984375 259.652344 C 273.597656 256.820312 273.417969 252.398438 270.589844 249.785156 C 267.765625 247.175781 263.339844 247.351562 260.730469 250.175781 C 258.867188 252.191406 258.429688 255.011719 259.347656 257.410156 C 240.808594 274.164062 217.140625 283.316406 191.980469 283.316406 C 136.429688 283.316406 91.238281 238.125 91.238281 182.578125 C 91.238281 131.09375 130.023438 88.195312 180.550781 82.488281 C 181.664062 84.328125 183.714844 85.535156 186.019531 85.460938 C 189.421875 85.351562 192.089844 82.507812 191.980469 79.105469 C 191.871094 75.707031 189.023438 73.039062 185.621094 73.148438 C 183.09375 73.230469 180.96875 74.828125 180.09375 77.042969 C 126.746094 82.984375 85.777344 128.246094 85.777344 182.578125 C 85.777344 241.136719 133.417969 288.777344 191.980469 288.777344 C 218.570312 288.777344 243.585938 279.078125 263.144531 261.335938 C 265.78125 262.445312 268.9375 261.863281 270.984375 259.652344 " fill-opacity="1" fill-rule="nonzero"/><path fill="#2aa297" d="M 276.765625 188.519531 C 276.765625 188.535156 276.765625 188.5625 276.765625 188.59375 C 276.765625 188.558594 276.765625 188.535156 276.765625 188.519531 Z M 276.761719 188.707031 C 276.753906 188.839844 276.746094 189.015625 276.746094 189.203125 C 276.753906 188.980469 276.753906 188.820312 276.761719 188.707031 Z M 276.710938 190.042969 C 276.710938 190.058594 276.710938 190.066406 276.710938 190.078125 C 276.710938 190.066406 276.710938 190.054688 276.710938 190.042969 Z M 276.707031 190.179688 C 276.707031 190.199219 276.707031 190.199219 276.707031 190.179688 Z M 282.277344 184.214844 C 285.222656 184.328125 287.523438 186.8125 287.414062 189.757812 C 287.296875 192.699219 284.816406 195.003906 281.871094 194.890625 C 278.925781 194.777344 276.625 192.289062 276.734375 189.347656 C 276.851562 186.40625 279.335938 184.101562 282.277344 184.214844 Z M 289.050781 189.820312 C 289.195312 185.976562 286.1875 182.722656 282.34375 182.578125 C 278.496094 182.429688 275.25 185.4375 275.097656 189.285156 C 274.996094 191.972656 276.441406 194.367188 278.632812 195.617188 C 274.632812 222.117188 258.527344 245.554688 235.09375 258.847656 C 233.367188 257.597656 231.046875 257.273438 228.964844 258.210938 C 225.859375 259.601562 224.46875 263.246094 225.859375 266.347656 C 227.25 269.457031 230.898438 270.847656 234 269.457031 C 236.335938 268.410156 237.699219 266.085938 237.644531 263.683594 C 262.664062 249.542969 279.855469 224.527344 284.0625 196.238281 C 286.84375 195.40625 288.929688 192.882812 289.050781 189.820312 " fill-opacity="1" fill-rule="nonzero"/><path fill="#2aa297" d="M 162.84375 262.496094 C 162.839844 262.496094 162.835938 262.492188 162.832031 262.492188 C 162.835938 262.492188 162.839844 262.496094 162.84375 262.496094 Z M 160.472656 272.945312 C 157.65625 272.070312 156.078125 269.074219 156.949219 266.261719 C 157.820312 263.449219 160.816406 261.867188 163.628906 262.738281 C 163.328125 262.644531 163.03125 262.550781 162.894531 262.511719 C 163.003906 262.542969 163.226562 262.613281 163.628906 262.738281 C 164.066406 262.875 164.300781 262.945312 164.390625 262.976562 C 164.273438 262.9375 163.953125 262.839844 163.632812 262.738281 C 166.445312 263.609375 168.023438 266.605469 167.152344 269.421875 C 166.28125 272.234375 163.285156 273.8125 160.472656 272.945312 Z M 105.542969 196.996094 C 107.3125 195.808594 108.417969 193.730469 108.253906 191.449219 C 108.011719 188.054688 105.066406 185.503906 101.671875 185.746094 C 98.277344 185.988281 95.722656 188.933594 95.964844 192.328125 C 96.148438 194.875 97.855469 196.953125 100.128906 197.722656 C 105.265625 228.859375 126.09375 255.488281 155.078125 268.042969 C 155.167969 270.941406 157.0625 273.605469 159.984375 274.507812 C 159.597656 274.390625 159.214844 274.269531 159.035156 274.210938 C 159.175781 274.257812 159.46875 274.347656 159.984375 274.507812 C 160.546875 274.679688 160.847656 274.777344 160.972656 274.816406 C 160.8125 274.765625 160.402344 274.636719 159.984375 274.507812 C 163.664062 275.644531 167.578125 273.582031 168.71875 269.902344 C 169.855469 266.230469 167.792969 262.3125 164.113281 261.171875 C 161.539062 260.378906 158.851562 261.152344 157.078125 262.953125 C 129.929688 251.125 110.410156 226.171875 105.542969 196.996094 " fill-opacity="1" fill-rule="nonzero"/></svg>