<svg xmlns="http://www.w3.org/2000/svg" xmlns:xlink="http://www.w3.org/1999/xlink" width="1000" zoomAndPan="magnify" viewBox="0 0 750 749.999995" height="1000" preserveAspectRatio="xMidYMid meet" version="1.0"><defs><clipPath id="9730d4c329"><path d="M 157 550 L 645 550 L 645 688.777344 L 157 688.777344 Z M 157 550 " clip-rule="nonzero"/></clipPath><clipPath id="87396bc544"><path d="M 472 366 L 689.847656 366 L 689.847656 655 L 472 655 Z M 472 366 " clip-rule="nonzero"/></clipPath><clipPath id="628a2bcebb"><path d="M 83 61.027344 L 377 61.027344 L 377 613 L 83 613 Z M 83 61.027344 " clip-rule="nonzero"/></clipPath></defs><g clip-path="url(#9730d4c329)"><path fill="#2aa297" d="M 624.101562 558.363281 C 624.140625 558.316406 624.203125 558.234375 624.28125 558.128906 C 624.203125 558.226562 624.140625 558.308594 624.101562 558.363281 Z M 626.703125 570.320312 C 622.621094 567.207031 621.828125 561.347656 624.949219 557.257812 C 624.792969 557.457031 624.644531 557.652344 624.511719 557.832031 C 624.632812 557.671875 624.773438 557.492188 624.949219 557.257812 C 625.492188 556.546875 625.746094 556.210938 625.816406 556.117188 C 625.71875 556.25 625.335938 556.753906 624.949219 557.257812 C 628.066406 553.171875 633.917969 552.382812 638.011719 555.5 C 642.09375 558.617188 642.886719 564.472656 639.765625 568.5625 C 636.65625 572.644531 630.792969 573.4375 626.703125 570.320312 Z M 159.96875 592.75 C 155.902344 597.074219 156.117188 603.875 160.445312 607.941406 C 163.574219 610.882812 168 611.574219 171.75 610.097656 C 230.445312 661.015625 304.984375 688.953125 382.820312 688.953125 C 433.09375 688.953125 481.289062 677.652344 526.066406 655.363281 C 565.21875 635.882812 600.578125 608.085938 628.976562 574.597656 C 633.664062 575.945312 638.914062 574.394531 642.039062 570.292969 C 646.117188 564.953125 645.082031 557.296875 639.738281 553.226562 C 634.402344 549.15625 626.746094 550.179688 622.675781 555.527344 C 619.710938 559.410156 619.460938 564.519531 621.59375 568.582031 C 561.832031 639.175781 475.46875 679.421875 382.820312 679.421875 C 307.355469 679.421875 235.082031 652.359375 178.144531 603.023438 C 179.195312 599.289062 178.1875 595.109375 175.164062 592.273438 C 170.835938 588.210938 164.03125 588.417969 159.96875 592.75 " fill-opacity="1" fill-rule="nonzero"/></g><path fill="#2aa297" d="M 100.53125 490.460938 C 100.511719 490.414062 100.46875 490.324219 100.417969 490.207031 C 100.476562 490.339844 100.511719 490.421875 100.53125 490.460938 Z M 99.574219 488.332031 C 99.308594 487.742188 99.191406 487.480469 99.574219 488.332031 Z M 87.617188 484.449219 C 92.304688 482.34375 97.832031 484.445312 99.9375 489.140625 C 102.042969 493.824219 99.941406 499.351562 95.253906 501.457031 C 90.5625 503.5625 85.039062 501.464844 82.933594 496.769531 C 80.828125 492.082031 82.929688 486.554688 87.617188 484.449219 Z M 123.070312 202.886719 C 126.320312 197.921875 124.933594 191.257812 119.96875 188.003906 C 115 184.753906 108.335938 186.148438 105.085938 191.109375 C 102.710938 194.734375 102.824219 199.269531 104.988281 202.71875 C 75.707031 252.234375 60.273438 308.601562 60.273438 366.414062 C 60.273438 407.25 67.824219 446.910156 82.683594 484.496094 C 79.332031 487.980469 78.230469 493.277344 80.324219 497.945312 C 83.074219 504.074219 90.300781 506.816406 96.421875 504.066406 C 102.550781 501.308594 105.296875 494.085938 102.546875 487.964844 C 100.527344 483.464844 96.097656 480.800781 91.460938 480.789062 C 77.101562 444.382812 69.804688 405.964844 69.804688 366.414062 C 69.804688 310.371094 84.75 255.71875 113.113281 207.707031 C 116.9375 208.046875 120.820312 206.324219 123.070312 202.886719 " fill-opacity="1" fill-rule="nonzero"/><path fill="#2aa297" d="M 515.90625 113.777344 C 516.007812 113.832031 516.03125 113.84375 515.90625 113.777344 Z M 515.847656 113.757812 C 515.78125 113.71875 515.683594 113.671875 515.554688 113.601562 C 515.671875 113.664062 515.777344 113.71875 515.847656 113.757812 Z M 522.988281 96.480469 C 527.59375 98.78125 529.460938 104.390625 527.167969 108.980469 C 524.867188 113.582031 519.261719 115.460938 514.664062 113.160156 C 510.066406 110.867188 508.191406 105.261719 510.492188 100.660156 C 512.785156 96.058594 518.390625 94.191406 522.988281 96.480469 Z M 623.550781 178.308594 C 620.929688 174.839844 616.605469 173.425781 612.621094 174.324219 C 589.722656 147.003906 561.796875 123.667969 530.9375 106.011719 C 531.40625 101.136719 528.90625 96.242188 524.265625 93.929688 C 518.257812 90.929688 510.925781 93.378906 507.929688 99.386719 C 504.929688 105.394531 507.378906 112.71875 513.390625 115.722656 C 517.742188 117.894531 522.769531 117.195312 526.363281 114.371094 C 556.144531 131.433594 583.097656 153.964844 605.21875 180.320312 C 603.621094 183.808594 603.945312 188.023438 606.417969 191.292969 C 610.007812 196.023438 616.75 196.949219 621.480469 193.367188 C 626.214844 189.78125 627.140625 183.035156 623.550781 178.308594 " fill-opacity="1" fill-rule="nonzero"/><g clip-path="url(#87396bc544)"><path fill="#2aa297" d="M 668.132812 379.492188 C 668.128906 379.625 668.128906 379.726562 668.128906 379.792969 C 668.128906 379.730469 668.128906 379.632812 668.132812 379.492188 Z M 668.179688 376.941406 C 668.179688 376.914062 668.179688 376.914062 668.179688 376.941406 Z M 677.664062 369.273438 C 682.800781 369.378906 686.894531 373.644531 686.789062 378.78125 C 686.679688 383.917969 682.417969 388.015625 677.28125 387.90625 C 672.144531 387.804688 668.046875 383.539062 668.152344 378.402344 C 668.144531 378.792969 668.140625 379.179688 668.132812 379.464844 C 668.132812 379.230469 668.140625 378.878906 668.152344 378.398438 C 668.167969 377.636719 668.179688 377.226562 668.179688 377.035156 C 668.171875 377.277344 668.167969 377.835938 668.152344 378.398438 C 668.261719 373.261719 672.527344 369.167969 677.664062 369.273438 Z M 689.648438 378.839844 C 689.785156 372.128906 684.433594 366.546875 677.722656 366.414062 C 671.003906 366.273438 665.429688 371.625 665.296875 378.34375 C 665.195312 383.191406 667.972656 387.4375 672.042969 389.476562 C 663.398438 499.566406 593.644531 594.425781 490.863281 635.6875 C 488.046875 633.085938 483.921875 632.082031 480.046875 633.414062 C 474.441406 635.351562 471.460938 641.476562 473.402344 647.089844 C 475.339844 652.703125 481.460938 655.679688 487.074219 653.734375 C 491.179688 652.320312 493.863281 648.65625 494.257812 644.59375 C 545.691406 623.945312 590.238281 589.566406 623.558594 544.675781 C 657.25 499.304688 677.171875 446.066406 681.558594 390.042969 C 686.179688 388.398438 689.539062 384.03125 689.648438 378.839844 C 689.648438 378.847656 689.648438 378.859375 689.648438 378.867188 C 689.648438 378.859375 689.648438 378.847656 689.648438 378.839844 C 689.652344 378.644531 689.652344 378.472656 689.660156 378.304688 C 689.652344 378.476562 689.652344 378.660156 689.648438 378.839844 " fill-opacity="1" fill-rule="nonzero"/></g><g clip-path="url(#628a2bcebb)"><path fill="#2aa297" d="M 207.910156 592.027344 C 207.878906 592 207.878906 592 207.910156 592.027344 Z M 196.039062 594.835938 C 199.097656 590.703125 204.941406 589.835938 209.074219 592.882812 C 208.605469 592.542969 208.140625 592.195312 207.960938 592.058594 C 208.101562 592.167969 208.441406 592.414062 209.078125 592.882812 C 209.816406 593.433594 210.152344 593.683594 210.242188 593.75 C 210.121094 593.660156 209.601562 593.273438 209.078125 592.890625 C 213.207031 595.949219 214.082031 601.789062 211.027344 605.921875 C 207.96875 610.058594 202.121094 610.929688 197.992188 607.871094 C 193.859375 604.816406 192.984375 598.964844 196.039062 594.835938 Z M 356.089844 67.941406 C 283.550781 74.382812 216.246094 106.871094 165.625 160.140625 C 112.4375 216.117188 83.144531 289.371094 83.144531 366.414062 C 83.144531 413.832031 93.949219 459.21875 115.261719 501.308594 C 133.789062 537.917969 160.117188 570.835938 191.804688 597.144531 C 190.511719 601.859375 192.132812 607.09375 196.292969 610.171875 C 201.6875 614.160156 209.332031 613.023438 213.324219 607.625 C 217.316406 602.226562 216.175781 594.582031 210.777344 590.59375 C 206.859375 587.6875 201.761719 587.515625 197.730469 589.683594 C 130.816406 534.25 92.675781 453.53125 92.675781 366.414062 C 92.675781 215.746094 207.855469 90.734375 356.722656 77.460938 C 358.671875 80.804688 362.359375 82.984375 366.496094 82.796875 C 372.425781 82.527344 377.015625 77.5 376.75 71.570312 C 376.484375 65.644531 371.453125 61.046875 365.523438 61.316406 C 361.222656 61.511719 357.636719 64.214844 356.089844 67.941406 " fill-opacity="1" fill-rule="nonzero"/></g><path fill="#2aa297" d="M 630.9375 452.785156 C 630.910156 452.878906 630.882812 452.96875 630.855469 453.046875 C 630.875 452.96875 630.910156 452.878906 630.9375 452.785156 Z M 630.835938 453.101562 C 630.800781 453.207031 630.769531 453.300781 630.746094 453.382812 C 630.769531 453.308594 630.800781 453.214844 630.835938 453.101562 Z M 630.675781 453.597656 C 630.667969 453.625 630.667969 453.625 630.675781 453.597656 Z M 631.390625 451.371094 C 631.398438 451.351562 631.40625 451.335938 631.414062 451.316406 C 631.40625 451.335938 631.398438 451.351562 631.390625 451.371094 Z M 631.5 451.035156 C 631.539062 450.921875 631.566406 450.847656 631.574219 450.8125 C 631.558594 450.847656 631.539062 450.921875 631.5 451.035156 Z M 642.851562 446.199219 C 647.746094 447.773438 650.445312 453.039062 648.859375 457.929688 C 647.285156 462.824219 642.027344 465.519531 637.132812 463.9375 C 632.242188 462.359375 629.546875 457.097656 631.121094 452.210938 C 631.199219 451.980469 631.257812 451.796875 631.3125 451.632812 C 631.25 451.8125 631.191406 452.007812 631.121094 452.210938 C 632.699219 447.3125 637.964844 444.625 642.851562 446.199219 Z M 651.832031 458.054688 C 651.75 458.292969 651.667969 458.546875 651.582031 458.808594 C 653.648438 452.417969 650.121094 445.542969 643.730469 443.480469 C 637.339844 441.421875 630.46875 444.941406 628.402344 451.328125 C 626.914062 455.945312 628.347656 460.808594 631.660156 463.933594 C 591.625 565.941406 493.070312 633.683594 382.820312 633.683594 C 292.199219 633.683594 206.945312 586.789062 157.910156 510.652344 C 159.9375 507.40625 160.164062 503.179688 158.132812 499.625 C 155.191406 494.46875 148.628906 492.671875 143.46875 495.617188 C 138.3125 498.554688 136.519531 505.125 139.460938 510.277344 C 141.617188 514.058594 145.722656 516.023438 149.789062 515.644531 C 173.492188 552.523438 205.769531 583.496094 243.667969 605.625 C 285.773438 630.214844 333.890625 643.210938 382.820312 643.210938 C 497.074219 643.210938 599.195312 572.96875 640.613281 467.21875 C 645.511719 466.960938 649.988281 463.75 651.582031 458.808594 C 651.367188 459.472656 651.160156 460.128906 651.054688 460.449219 C 651.132812 460.195312 651.300781 459.695312 651.582031 458.808594 C 651.675781 458.511719 651.757812 458.269531 651.832031 458.054688 " fill-opacity="1" fill-rule="nonzero"/><path fill="#2aa297" d="M 110.878906 370.230469 C 105.738281 370.210938 101.578125 366.003906 101.605469 360.867188 C 101.628906 355.722656 105.828125 351.566406 110.96875 351.59375 C 116.109375 351.613281 120.269531 355.816406 120.242188 360.957031 C 120.25 359.675781 120.253906 358.386719 120.242188 360.957031 C 120.238281 361.734375 120.238281 362.15625 120.238281 362.339844 C 120.238281 362.101562 120.238281 361.53125 120.242188 360.957031 C 120.21875 366.101562 116.015625 370.257812 110.878906 370.230469 Z M 382.820312 94.382812 C 382.664062 88.449219 377.730469 83.753906 371.796875 83.910156 C 367.472656 84.015625 363.824219 86.671875 362.210938 90.394531 C 295.285156 95.34375 232.832031 124.28125 185.398438 172.574219 C 138.289062 220.546875 110.554688 283.007812 106.539062 349.5625 C 102.003906 351.316406 98.769531 355.707031 98.746094 360.855469 C 98.714844 367.566406 104.152344 373.058594 110.863281 373.09375 C 117.582031 373.128906 123.070312 367.6875 123.101562 360.96875 C 123.125 356.074219 120.234375 351.84375 116.066406 349.890625 C 124.195312 216.847656 229.640625 109.828125 362.699219 99.917969 C 364.585938 103.277344 368.21875 105.503906 372.339844 105.402344 C 378.28125 105.246094 382.964844 100.320312 382.820312 94.382812 " fill-opacity="1" fill-rule="nonzero"/><path fill="#2aa297" d="M 192.996094 220.023438 C 193.03125 219.976562 193.03125 219.976562 192.996094 220.023438 Z M 192.917969 220.132812 C 192.800781 220.292969 192.582031 220.585938 192.226562 221.078125 C 192.507812 220.695312 192.773438 220.324219 192.917969 220.132812 Z M 192.074219 221.285156 C 191.839844 221.601562 191.664062 221.84375 191.539062 222.019531 C 191.6875 221.816406 191.878906 221.554688 192.074219 221.285156 Z M 191.488281 222.082031 C 191.433594 222.15625 191.390625 222.21875 191.359375 222.257812 C 191.394531 222.210938 191.4375 222.152344 191.488281 222.082031 Z M 191.304688 222.332031 C 191.257812 222.390625 191.265625 222.382812 191.304688 222.332031 Z M 190.136719 208.15625 C 194.285156 211.195312 195.1875 217.03125 192.148438 221.183594 C 189.109375 225.328125 183.265625 226.226562 179.121094 223.191406 C 174.972656 220.152344 174.074219 214.3125 177.109375 210.167969 C 180.148438 206.015625 185.992188 205.117188 190.136719 208.15625 Z M 556.125 181.003906 C 508.890625 136.75 447.75 112.488281 382.820312 112.488281 C 342.460938 112.488281 303.847656 121.722656 268.058594 139.929688 C 237.457031 155.492188 209.945312 177.503906 187.847656 203.945312 C 183.121094 202.648438 177.871094 204.292969 174.804688 208.476562 C 170.835938 213.890625 172.015625 221.527344 177.429688 225.496094 C 182.84375 229.46875 190.484375 228.285156 194.453125 222.875 C 197.328125 218.953125 197.492188 213.867188 195.3125 209.851562 C 241.984375 153.890625 309.671875 122.019531 382.820312 122.019531 C 445.234375 122.019531 504.015625 145.3125 549.460938 187.816406 C 548.277344 191.460938 549.082031 195.617188 551.914062 198.574219 C 556.015625 202.859375 562.824219 203.011719 567.109375 198.910156 C 571.402344 194.804688 571.546875 188 567.445312 183.707031 C 564.433594 180.566406 559.980469 179.65625 556.125 181.003906 " fill-opacity="1" fill-rule="nonzero"/><path fill="#2aa297" d="M 379.773438 583.371094 C 379.808594 583.371094 379.855469 583.371094 379.933594 583.371094 C 379.863281 583.371094 379.808594 583.371094 379.773438 583.371094 Z M 380.042969 583.371094 C 380.1875 583.363281 380.410156 583.363281 380.707031 583.355469 C 380.445312 583.363281 380.210938 583.363281 380.042969 583.371094 Z M 382.375 583.324219 C 382.4375 583.324219 382.488281 583.324219 382.53125 583.324219 C 382.484375 583.324219 382.4375 583.324219 382.375 583.324219 Z M 382.667969 583.324219 C 382.71875 583.316406 382.71875 583.316406 382.667969 583.324219 Z M 372.070312 592.832031 C 371.980469 587.6875 376.085938 583.433594 381.222656 583.339844 C 381.214844 583.339844 381.207031 583.339844 381.203125 583.339844 C 381.207031 583.339844 381.214844 583.339844 381.222656 583.339844 C 381.453125 583.339844 381.632812 583.335938 381.800781 583.335938 C 381.621094 583.335938 381.421875 583.339844 381.222656 583.339844 C 386.367188 583.253906 390.617188 587.359375 390.710938 592.496094 C 390.796875 597.636719 386.691406 601.890625 381.554688 601.984375 C 376.414062 602.074219 372.164062 597.96875 372.070312 592.832031 Z M 381.605469 604.839844 C 388.324219 604.722656 393.691406 599.160156 393.566406 592.449219 C 393.445312 585.734375 387.886719 580.367188 381.175781 580.484375 C 376.355469 580.574219 372.238281 583.46875 370.339844 587.578125 C 254.039062 581.074219 161.292969 484.210938 161.292969 366.414062 C 161.292969 285 204.949219 211.582031 275.882812 172.453125 C 278.960938 174.695312 283.132812 175.230469 286.820312 173.492188 C 292.1875 170.953125 294.480469 164.546875 291.945312 159.175781 C 289.410156 153.8125 283 151.515625 277.632812 154.054688 C 273.679688 155.921875 271.398438 159.894531 271.484375 164.003906 C 237.40625 182.816406 208.535156 209.941406 187.578125 242.964844 C 164.148438 279.886719 151.765625 322.578125 151.765625 366.414062 C 151.765625 489.367188 248.640625 590.464844 370.070312 597.117188 C 371.882812 601.707031 376.386719 604.9375 381.605469 604.839844 " fill-opacity="1" fill-rule="nonzero"/><path fill="#2aa297" d="M 205.316406 445.046875 C 205.324219 445.0625 205.332031 445.078125 205.339844 445.101562 C 205.328125 445.078125 205.324219 445.066406 205.316406 445.046875 Z M 206.082031 446.601562 C 206.125 446.695312 206.167969 446.785156 206.207031 446.863281 C 206.167969 446.777344 206.121094 446.691406 206.082031 446.601562 Z M 206.453125 447.367188 C 206.519531 447.503906 206.558594 447.582031 206.582031 447.625 C 206.558594 447.574219 206.511719 447.488281 206.453125 447.367188 Z M 193.464844 442.070312 C 198.078125 439.804688 203.671875 441.707031 205.941406 446.320312 C 208.210938 450.933594 206.304688 456.527344 201.691406 458.796875 C 197.078125 461.066406 191.484375 459.15625 189.214844 454.550781 C 186.945312 449.9375 188.851562 444.335938 193.464844 442.070312 Z M 174.636719 366.414062 C 174.636719 392.566406 179.410156 417.929688 188.832031 441.976562 C 185.367188 445.570312 184.324219 451.082031 186.648438 455.808594 C 186.335938 455.171875 186.023438 454.535156 185.878906 454.238281 C 185.992188 454.476562 186.230469 454.953125 186.648438 455.808594 C 187.066406 456.65625 187.300781 457.132812 187.417969 457.363281 C 187.269531 457.070312 186.960938 456.441406 186.648438 455.808594 C 189.613281 461.832031 196.925781 464.328125 202.953125 461.363281 C 208.976562 458.398438 211.472656 451.082031 208.503906 445.0625 C 206.398438 440.777344 202.09375 438.296875 197.617188 438.265625 C 188.691406 415.402344 184.167969 391.285156 184.167969 366.414062 C 184.167969 256.878906 273.28125 167.765625 382.820312 167.765625 C 397.007812 167.765625 411.109375 169.296875 424.878906 172.269531 C 425.710938 175.960938 428.457031 179.09375 432.339844 180.230469 C 438.035156 181.902344 444.011719 178.636719 445.679688 172.9375 C 447.34375 167.242188 444.074219 161.265625 438.382812 159.597656 C 434.167969 158.363281 429.8125 159.835938 427.152344 162.984375 C 412.640625 159.835938 397.773438 158.234375 382.820312 158.234375 C 268.027344 158.234375 174.636719 251.625 174.636719 366.414062 " fill-opacity="1" fill-rule="nonzero"/><path fill="#2aa297" d="M 504.273438 486.953125 C 504.1875 487.050781 504.101562 487.140625 504.039062 487.214844 C 504.101562 487.144531 504.183594 487.058594 504.273438 486.953125 Z M 505.242188 485.90625 C 505.328125 485.8125 505.40625 485.726562 505.476562 485.648438 C 505.402344 485.730469 505.320312 485.816406 505.242188 485.90625 Z M 505.710938 485.402344 C 505.957031 485.128906 505.910156 485.179688 505.710938 485.402344 Z M 518.042969 485.777344 C 521.816406 489.265625 522.050781 495.175781 518.566406 498.949219 C 515.078125 502.722656 509.167969 502.964844 505.394531 499.476562 C 501.621094 495.992188 501.382812 490.085938 504.871094 486.308594 C 504.832031 486.351562 504.792969 486.390625 504.75 486.4375 C 504.792969 486.390625 504.832031 486.355469 504.871094 486.308594 C 504.9375 486.230469 505 486.167969 505.058594 486.101562 C 505 486.167969 504.9375 486.234375 504.871094 486.300781 C 508.359375 482.523438 514.265625 482.292969 518.042969 485.777344 Z M 520.664062 500.894531 C 525.222656 495.957031 524.914062 488.242188 519.980469 483.679688 C 515.050781 479.125 507.324219 479.433594 502.773438 484.363281 C 499.527344 487.875 498.761719 492.796875 500.367188 496.984375 C 468.019531 526.214844 426.714844 542.1875 382.820312 542.1875 C 285.894531 542.1875 207.039062 463.335938 207.039062 366.414062 C 207.039062 276.582031 274.714844 201.734375 362.871094 191.773438 C 364.816406 194.984375 368.394531 197.089844 372.417969 196.960938 C 378.351562 196.769531 383.003906 191.808594 382.820312 185.871094 C 382.625 179.9375 377.65625 175.285156 371.722656 175.476562 C 367.308594 175.617188 363.605469 178.410156 362.074219 182.269531 C 268.996094 192.636719 197.507812 271.613281 197.507812 366.414062 C 197.507812 468.59375 280.636719 551.714844 382.820312 551.714844 C 429.210938 551.714844 472.859375 534.792969 506.992188 503.835938 C 511.585938 505.769531 517.097656 504.757812 520.664062 500.894531 " fill-opacity="1" fill-rule="nonzero"/><path fill="#2aa297" d="M 530.757812 376.78125 C 530.757812 376.808594 530.757812 376.855469 530.757812 376.90625 C 530.757812 376.847656 530.757812 376.808594 530.757812 376.78125 Z M 530.75 377.109375 C 530.734375 377.335938 530.722656 377.644531 530.71875 377.972656 C 530.730469 377.585938 530.734375 377.304688 530.75 377.109375 Z M 530.65625 379.4375 C 530.65625 379.464844 530.65625 379.484375 530.65625 379.503906 C 530.65625 379.484375 530.65625 379.457031 530.65625 379.4375 Z M 530.648438 379.679688 C 530.648438 379.710938 530.648438 379.710938 530.648438 379.679688 Z M 540.371094 369.273438 C 545.507812 369.464844 549.523438 373.804688 549.332031 378.941406 C 549.128906 384.078125 544.800781 388.09375 539.664062 387.898438 C 534.527344 387.699219 530.507812 383.359375 530.703125 378.222656 C 530.902344 373.09375 535.234375 369.074219 540.371094 369.273438 Z M 552.1875 379.046875 C 552.445312 372.34375 547.191406 366.667969 540.484375 366.414062 C 533.773438 366.152344 528.109375 371.402344 527.847656 378.117188 C 527.664062 382.808594 530.1875 386.988281 534.011719 389.167969 C 527.035156 435.402344 498.929688 476.296875 458.046875 499.492188 C 455.03125 497.3125 450.984375 496.75 447.351562 498.378906 C 441.929688 500.804688 439.503906 507.164062 441.929688 512.582031 C 444.359375 518 450.722656 520.429688 456.132812 518 C 460.210938 516.175781 462.59375 512.125 462.492188 507.929688 C 506.148438 483.257812 536.148438 439.609375 543.484375 390.246094 C 548.339844 388.796875 551.980469 384.390625 552.1875 379.046875 " fill-opacity="1" fill-rule="nonzero"/><path fill="#2aa297" d="M 331.980469 505.855469 C 331.96875 505.855469 331.964844 505.847656 331.957031 505.847656 C 331.960938 505.847656 331.972656 505.855469 331.980469 505.855469 Z M 327.839844 524.089844 C 322.925781 522.566406 320.171875 517.335938 321.691406 512.425781 C 323.210938 507.519531 328.4375 504.761719 333.351562 506.277344 C 332.828125 506.117188 332.308594 505.957031 332.070312 505.882812 C 332.253906 505.941406 332.648438 506.0625 333.351562 506.277344 C 334.109375 506.519531 334.519531 506.640625 334.679688 506.695312 C 334.472656 506.628906 333.914062 506.460938 333.351562 506.285156 C 338.261719 507.800781 341.015625 513.03125 339.5 517.941406 C 337.976562 522.847656 332.746094 525.605469 327.839844 524.089844 Z M 232 391.574219 C 235.089844 389.496094 237.015625 385.875 236.730469 381.890625 C 236.308594 375.96875 231.164062 371.515625 225.242188 371.9375 C 219.320312 372.363281 214.863281 377.503906 215.289062 383.425781 C 215.605469 387.871094 218.582031 391.492188 222.554688 392.84375 C 231.511719 447.167969 267.855469 493.632812 318.433594 515.539062 C 318.585938 520.597656 321.894531 525.242188 326.992188 526.816406 C 326.316406 526.609375 325.648438 526.402344 325.332031 526.300781 C 325.582031 526.382812 326.089844 526.539062 326.992188 526.816406 C 327.96875 527.121094 328.496094 527.285156 328.714844 527.355469 C 328.4375 527.269531 327.714844 527.039062 326.992188 526.816406 C 333.40625 528.804688 340.242188 525.203125 342.226562 518.785156 C 344.214844 512.375 340.613281 505.535156 334.195312 503.550781 C 329.703125 502.160156 325.011719 503.515625 321.917969 506.652344 C 274.546875 486.019531 240.492188 442.480469 232 391.574219 " fill-opacity="1" fill-rule="nonzero"/></svg>