<svg xmlns="http://www.w3.org/2000/svg" xmlns:xlink="http://www.w3.org/1999/xlink" width="800" zoomAndPan="magnify" viewBox="0 0 600 269.999989" height="360" preserveAspectRatio="xMidYMid meet" version="1.0"><defs><g/></defs><g fill="#a6e9de" fill-opacity="1"><g transform="translate(133.842423, 131.396384)"><g><path d="M 27.71875 -44.625 C 22.332031 -44.625 18.082031 -42.828125 14.96875 -39.234375 C 11.851562 -35.648438 10.296875 -30.738281 10.296875 -24.5 C 10.296875 -18.09375 11.796875 -13.140625 14.796875 -9.640625 C 17.804688 -6.140625 22.09375 -4.390625 27.65625 -4.390625 C 31.070312 -4.390625 34.972656 -5.003906 39.359375 -6.234375 L 39.359375 -1.234375 C 35.960938 0.0351562 31.769531 0.671875 26.78125 0.671875 C 19.5625 0.671875 13.988281 -1.515625 10.0625 -5.890625 C 6.144531 -10.273438 4.1875 -16.503906 4.1875 -24.578125 C 4.1875 -29.628906 5.128906 -34.050781 7.015625 -37.84375 C 8.910156 -41.644531 11.640625 -44.570312 15.203125 -46.625 C 18.765625 -48.6875 22.960938 -49.71875 27.796875 -49.71875 C 32.929688 -49.71875 37.421875 -48.78125 41.265625 -46.90625 L 38.859375 -42 C 35.140625 -43.75 31.425781 -44.625 27.71875 -44.625 Z M 27.71875 -44.625 "/></g></g></g><g fill="#a6e9de" fill-opacity="1"><g transform="translate(182.15974, 131.396384)"><g><path d="M 49.28125 -24.578125 C 49.28125 -16.734375 47.296875 -10.5625 43.328125 -6.0625 C 39.359375 -1.570312 33.84375 0.671875 26.78125 0.671875 C 19.5625 0.671875 13.988281 -1.535156 10.0625 -5.953125 C 6.144531 -10.367188 4.1875 -16.597656 4.1875 -24.640625 C 4.1875 -32.617188 6.148438 -38.800781 10.078125 -43.1875 C 14.015625 -47.582031 19.609375 -49.78125 26.859375 -49.78125 C 33.890625 -49.78125 39.382812 -47.546875 43.34375 -43.078125 C 47.300781 -38.609375 49.28125 -32.441406 49.28125 -24.578125 Z M 10.21875 -24.578125 C 10.21875 -17.929688 11.628906 -12.894531 14.453125 -9.46875 C 17.285156 -6.039062 21.394531 -4.328125 26.78125 -4.328125 C 32.21875 -4.328125 36.320312 -6.035156 39.09375 -9.453125 C 41.863281 -12.867188 43.25 -17.910156 43.25 -24.578125 C 43.25 -31.171875 41.867188 -36.171875 39.109375 -39.578125 C 36.347656 -42.984375 32.265625 -44.6875 26.859375 -44.6875 C 21.421875 -44.6875 17.285156 -42.96875 14.453125 -39.53125 C 11.628906 -36.101562 10.21875 -31.117188 10.21875 -24.578125 Z M 10.21875 -24.578125 "/></g></g></g><g fill="#a6e9de" fill-opacity="1"><g transform="translate(240.63294, 131.396384)"><g><path d="M 45.859375 -24.96875 C 45.859375 -16.882812 43.660156 -10.703125 39.265625 -6.421875 C 34.878906 -2.140625 28.5625 0 20.3125 0 L 6.734375 0 L 6.734375 -49.015625 L 21.75 -49.015625 C 29.375 -49.015625 35.296875 -46.898438 39.515625 -42.671875 C 43.742188 -38.453125 45.859375 -32.550781 45.859375 -24.96875 Z M 39.828125 -24.78125 C 39.828125 -31.164062 38.222656 -35.976562 35.015625 -39.21875 C 31.804688 -42.457031 27.039062 -44.078125 20.71875 -44.078125 L 12.4375 -44.078125 L 12.4375 -4.921875 L 19.375 -4.921875 C 26.164062 -4.921875 31.269531 -6.59375 34.6875 -9.9375 C 38.113281 -13.28125 39.828125 -18.226562 39.828125 -24.78125 Z M 39.828125 -24.78125 "/></g></g></g><g fill="#a6e9de" fill-opacity="1"><g transform="translate(295.687333, 131.396384)"><g><path d="M 34.0625 0 L 6.734375 0 L 6.734375 -49.015625 L 34.0625 -49.015625 L 34.0625 -43.953125 L 12.4375 -43.953125 L 12.4375 -28.15625 L 32.75 -28.15625 L 32.75 -23.125 L 12.4375 -23.125 L 12.4375 -5.09375 L 34.0625 -5.09375 Z M 34.0625 0 "/></g></g></g><g fill="#a6e9de" fill-opacity="1"><g transform="translate(338.876427, 131.396384)"><g><path d="M 37.546875 0 L 31.4375 -15.59375 L 11.796875 -15.59375 L 5.765625 0 L 0 0 L 19.375 -49.21875 L 24.171875 -49.21875 L 43.453125 0 Z M 29.671875 -20.71875 L 23.96875 -35.90625 C 23.226562 -37.820312 22.46875 -40.179688 21.6875 -42.984375 C 21.195312 -40.835938 20.492188 -38.476562 19.578125 -35.90625 L 13.8125 -20.71875 Z M 29.671875 -20.71875 "/></g></g></g><g fill="#a6e9de" fill-opacity="1"><g transform="translate(387.327811, 131.396384)"><g><path d="M 6.734375 0 L 6.734375 -49.015625 L 12.4375 -49.015625 L 12.4375 -5.15625 L 34.0625 -5.15625 L 34.0625 0 Z M 6.734375 0 "/></g></g></g><g fill="#a6e9de" fill-opacity="1"><g transform="translate(427.969572, 131.396384)"><g><path d="M 34.0625 0 L 6.734375 0 L 6.734375 -49.015625 L 34.0625 -49.015625 L 34.0625 -43.953125 L 12.4375 -43.953125 L 12.4375 -28.15625 L 32.75 -28.15625 L 32.75 -23.125 L 12.4375 -23.125 L 12.4375 -5.09375 L 34.0625 -5.09375 Z M 34.0625 0 "/></g></g></g><g fill="#a6e9de" fill-opacity="1"><g transform="translate(15.15419, 183.672647)"><g><path d="M 12.234375 -4.640625 C 12.234375 -3.109375 11.675781 -1.910156 10.5625 -1.046875 C 9.445312 -0.191406 7.9375 0.234375 6.03125 0.234375 C 3.96875 0.234375 2.378906 -0.03125 1.265625 -0.5625 L 1.265625 -2.515625 C 1.984375 -2.210938 2.757812 -1.972656 3.59375 -1.796875 C 4.4375 -1.617188 5.273438 -1.53125 6.109375 -1.53125 C 7.453125 -1.53125 8.46875 -1.785156 9.15625 -2.296875 C 9.84375 -2.816406 10.1875 -3.535156 10.1875 -4.453125 C 10.1875 -5.054688 10.0625 -5.550781 9.8125 -5.9375 C 9.570312 -6.320312 9.164062 -6.675781 8.59375 -7 C 8.03125 -7.320312 7.171875 -7.691406 6.015625 -8.109375 C 4.390625 -8.691406 3.226562 -9.378906 2.53125 -10.171875 C 1.832031 -10.960938 1.484375 -12 1.484375 -13.28125 C 1.484375 -14.625 1.988281 -15.691406 3 -16.484375 C 4.007812 -17.285156 5.347656 -17.6875 7.015625 -17.6875 C 8.742188 -17.6875 10.335938 -17.367188 11.796875 -16.734375 L 11.15625 -14.96875 C 9.71875 -15.570312 8.320312 -15.875 6.96875 -15.875 C 5.894531 -15.875 5.054688 -15.640625 4.453125 -15.171875 C 3.847656 -14.710938 3.546875 -14.078125 3.546875 -13.265625 C 3.546875 -12.660156 3.65625 -12.164062 3.875 -11.78125 C 4.09375 -11.394531 4.46875 -11.039062 5 -10.71875 C 5.53125 -10.394531 6.335938 -10.035156 7.421875 -9.640625 C 9.253906 -8.992188 10.515625 -8.296875 11.203125 -7.546875 C 11.890625 -6.796875 12.234375 -5.828125 12.234375 -4.640625 Z M 12.234375 -4.640625 "/></g></g></g><g fill="#a6e9de" fill-opacity="1"><g transform="translate(47.954574, 183.672647)"><g><path d="M 17.53125 -8.734375 C 17.53125 -5.953125 16.820312 -3.757812 15.40625 -2.15625 C 14 -0.5625 12.039062 0.234375 9.53125 0.234375 C 6.957031 0.234375 4.972656 -0.546875 3.578125 -2.109375 C 2.179688 -3.679688 1.484375 -5.898438 1.484375 -8.765625 C 1.484375 -11.597656 2.179688 -13.796875 3.578125 -15.359375 C 4.984375 -16.921875 6.972656 -17.703125 9.546875 -17.703125 C 12.054688 -17.703125 14.015625 -16.90625 15.421875 -15.3125 C 16.828125 -13.726562 17.53125 -11.535156 17.53125 -8.734375 Z M 3.640625 -8.734375 C 3.640625 -6.378906 4.140625 -4.585938 5.140625 -3.359375 C 6.148438 -2.140625 7.613281 -1.53125 9.53125 -1.53125 C 11.457031 -1.53125 12.914062 -2.140625 13.90625 -3.359375 C 14.894531 -4.578125 15.390625 -6.367188 15.390625 -8.734375 C 15.390625 -11.085938 14.894531 -12.867188 13.90625 -14.078125 C 12.925781 -15.285156 11.472656 -15.890625 9.546875 -15.890625 C 7.617188 -15.890625 6.148438 -15.28125 5.140625 -14.0625 C 4.140625 -12.84375 3.640625 -11.066406 3.640625 -8.734375 Z M 3.640625 -8.734375 "/></g></g></g><g fill="#a6e9de" fill-opacity="1"><g transform="translate(86.371607, 183.672647)"><g><path d="M 4.421875 0 L 2.390625 0 L 2.390625 -17.4375 L 12.109375 -17.4375 L 12.109375 -15.640625 L 4.421875 -15.640625 L 4.421875 -9.25 L 11.65625 -9.25 L 11.65625 -7.453125 L 4.421875 -7.453125 Z M 4.421875 0 "/></g></g></g><g fill="#a6e9de" fill-opacity="1"><g transform="translate(118.373031, 183.672647)"><g><path d="M 7.765625 0 L 5.734375 0 L 5.734375 -15.640625 L 0.21875 -15.640625 L 0.21875 -17.4375 L 13.28125 -17.4375 L 13.28125 -15.640625 L 7.765625 -15.640625 Z M 7.765625 0 "/></g></g></g><g fill="#a6e9de" fill-opacity="1"><g transform="translate(151.28075, 183.672647)"><g><path d="M 17.609375 0 L 15.609375 0 L 12.09375 -11.671875 C 11.925781 -12.191406 11.738281 -12.84375 11.53125 -13.625 C 11.320312 -14.414062 11.210938 -14.890625 11.203125 -15.046875 C 11.035156 -13.992188 10.757812 -12.847656 10.375 -11.609375 L 6.96875 0 L 4.953125 0 L 0.328125 -17.4375 L 2.46875 -17.4375 L 5.21875 -6.671875 C 5.601562 -5.160156 5.882812 -3.789062 6.0625 -2.5625 C 6.269531 -4.019531 6.585938 -5.441406 7.015625 -6.828125 L 10.140625 -17.4375 L 12.28125 -17.4375 L 15.5625 -6.734375 C 15.945312 -5.503906 16.269531 -4.113281 16.53125 -2.5625 C 16.675781 -3.6875 16.960938 -5.0625 17.390625 -6.6875 L 20.125 -17.4375 L 22.28125 -17.4375 Z M 17.609375 0 "/></g></g></g><g fill="#a6e9de" fill-opacity="1"><g transform="translate(193.287176, 183.672647)"><g><path d="M 13.359375 0 L 11.1875 -5.546875 L 4.203125 -5.546875 L 2.046875 0 L 0 0 L 6.890625 -17.5 L 8.59375 -17.5 L 15.453125 0 Z M 10.546875 -7.375 L 8.53125 -12.765625 C 8.257812 -13.453125 7.988281 -14.289062 7.71875 -15.28125 C 7.539062 -14.519531 7.289062 -13.679688 6.96875 -12.765625 L 4.90625 -7.375 Z M 10.546875 -7.375 "/></g></g></g><g fill="#a6e9de" fill-opacity="1"><g transform="translate(228.138649, 183.672647)"><g><path d="M 4.421875 -7.25 L 4.421875 0 L 2.390625 0 L 2.390625 -17.4375 L 7.171875 -17.4375 C 9.316406 -17.4375 10.898438 -17.023438 11.921875 -16.203125 C 12.941406 -15.390625 13.453125 -14.160156 13.453125 -12.515625 C 13.453125 -10.203125 12.28125 -8.640625 9.9375 -7.828125 L 14.671875 0 L 12.28125 0 L 8.0625 -7.25 Z M 4.421875 -8.984375 L 7.203125 -8.984375 C 8.628906 -8.984375 9.675781 -9.269531 10.34375 -9.84375 C 11.019531 -10.414062 11.359375 -11.269531 11.359375 -12.40625 C 11.359375 -13.550781 11.015625 -14.378906 10.328125 -14.890625 C 9.648438 -15.398438 8.5625 -15.65625 7.0625 -15.65625 L 4.421875 -15.65625 Z M 4.421875 -8.984375 "/></g></g></g><g fill="#a6e9de" fill-opacity="1"><g transform="translate(262.632374, 183.672647)"><g><path d="M 12.109375 0 L 2.390625 0 L 2.390625 -17.4375 L 12.109375 -17.4375 L 12.109375 -15.640625 L 4.421875 -15.640625 L 4.421875 -10.015625 L 11.65625 -10.015625 L 11.65625 -8.234375 L 4.421875 -8.234375 L 4.421875 -1.8125 L 12.109375 -1.8125 Z M 12.109375 0 "/></g></g></g><g fill="#a6e9de" fill-opacity="1"><g transform="translate(295.611642, 183.672647)"><g><path d="M 12.234375 -4.640625 C 12.234375 -3.109375 11.675781 -1.910156 10.5625 -1.046875 C 9.445312 -0.191406 7.9375 0.234375 6.03125 0.234375 C 3.96875 0.234375 2.378906 -0.03125 1.265625 -0.5625 L 1.265625 -2.515625 C 1.984375 -2.210938 2.757812 -1.972656 3.59375 -1.796875 C 4.4375 -1.617188 5.273438 -1.53125 6.109375 -1.53125 C 7.453125 -1.53125 8.46875 -1.785156 9.15625 -2.296875 C 9.84375 -2.816406 10.1875 -3.535156 10.1875 -4.453125 C 10.1875 -5.054688 10.0625 -5.550781 9.8125 -5.9375 C 9.570312 -6.320312 9.164062 -6.675781 8.59375 -7 C 8.03125 -7.320312 7.171875 -7.691406 6.015625 -8.109375 C 4.390625 -8.691406 3.226562 -9.378906 2.53125 -10.171875 C 1.832031 -10.960938 1.484375 -12 1.484375 -13.28125 C 1.484375 -14.625 1.988281 -15.691406 3 -16.484375 C 4.007812 -17.285156 5.347656 -17.6875 7.015625 -17.6875 C 8.742188 -17.6875 10.335938 -17.367188 11.796875 -16.734375 L 11.15625 -14.96875 C 9.71875 -15.570312 8.320312 -15.875 6.96875 -15.875 C 5.894531 -15.875 5.054688 -15.640625 4.453125 -15.171875 C 3.847656 -14.710938 3.546875 -14.078125 3.546875 -13.265625 C 3.546875 -12.660156 3.65625 -12.164062 3.875 -11.78125 C 4.09375 -11.394531 4.46875 -11.039062 5 -10.71875 C 5.53125 -10.394531 6.335938 -10.035156 7.421875 -9.640625 C 9.253906 -8.992188 10.515625 -8.296875 11.203125 -7.546875 C 11.890625 -6.796875 12.234375 -5.828125 12.234375 -4.640625 Z M 12.234375 -4.640625 "/></g></g></g><g fill="#a6e9de" fill-opacity="1"><g transform="translate(328.412028, 183.672647)"><g><path d="M 17.53125 -8.734375 C 17.53125 -5.953125 16.820312 -3.757812 15.40625 -2.15625 C 14 -0.5625 12.039062 0.234375 9.53125 0.234375 C 6.957031 0.234375 4.972656 -0.546875 3.578125 -2.109375 C 2.179688 -3.679688 1.484375 -5.898438 1.484375 -8.765625 C 1.484375 -11.597656 2.179688 -13.796875 3.578125 -15.359375 C 4.984375 -16.921875 6.972656 -17.703125 9.546875 -17.703125 C 12.054688 -17.703125 14.015625 -16.90625 15.421875 -15.3125 C 16.828125 -13.726562 17.53125 -11.535156 17.53125 -8.734375 Z M 3.640625 -8.734375 C 3.640625 -6.378906 4.140625 -4.585938 5.140625 -3.359375 C 6.148438 -2.140625 7.613281 -1.53125 9.53125 -1.53125 C 11.457031 -1.53125 12.914062 -2.140625 13.90625 -3.359375 C 14.894531 -4.578125 15.390625 -6.367188 15.390625 -8.734375 C 15.390625 -11.085938 14.894531 -12.867188 13.90625 -14.078125 C 12.925781 -15.285156 11.472656 -15.890625 9.546875 -15.890625 C 7.617188 -15.890625 6.148438 -15.28125 5.140625 -14.0625 C 4.140625 -12.84375 3.640625 -11.066406 3.640625 -8.734375 Z M 3.640625 -8.734375 "/></g></g></g><g fill="#a6e9de" fill-opacity="1"><g transform="translate(366.829061, 183.672647)"><g><path d="M 2.390625 0 L 2.390625 -17.4375 L 4.421875 -17.4375 L 4.421875 -1.84375 L 12.109375 -1.84375 L 12.109375 0 Z M 2.390625 0 "/></g></g></g><g fill="#a6e9de" fill-opacity="1"><g transform="translate(398.902034, 183.672647)"><g><path d="M 15.5625 -17.4375 L 15.5625 -6.15625 C 15.5625 -4.164062 14.957031 -2.601562 13.75 -1.46875 C 12.550781 -0.332031 10.90625 0.234375 8.8125 0.234375 C 6.71875 0.234375 5.09375 -0.335938 3.9375 -1.484375 C 2.789062 -2.628906 2.21875 -4.203125 2.21875 -6.203125 L 2.21875 -17.4375 L 4.25 -17.4375 L 4.25 -6.0625 C 4.25 -4.601562 4.644531 -3.484375 5.4375 -2.703125 C 6.226562 -1.921875 7.394531 -1.53125 8.9375 -1.53125 C 10.414062 -1.53125 11.550781 -1.921875 12.34375 -2.703125 C 13.132812 -3.492188 13.53125 -4.617188 13.53125 -6.078125 L 13.53125 -17.4375 Z M 15.5625 -17.4375 "/></g></g></g><g fill="#a6e9de" fill-opacity="1"><g transform="translate(436.078876, 183.672647)"><g><path d="M 7.765625 0 L 5.734375 0 L 5.734375 -15.640625 L 0.21875 -15.640625 L 0.21875 -17.4375 L 13.28125 -17.4375 L 13.28125 -15.640625 L 7.765625 -15.640625 Z M 7.765625 0 "/></g></g></g><g fill="#a6e9de" fill-opacity="1"><g transform="translate(468.986577, 183.672647)"><g><path d="M 2.390625 0 L 2.390625 -17.4375 L 4.421875 -17.4375 L 4.421875 0 Z M 2.390625 0 "/></g></g></g><g fill="#a6e9de" fill-opacity="1"><g transform="translate(495.192489, 183.672647)"><g><path d="M 17.53125 -8.734375 C 17.53125 -5.953125 16.820312 -3.757812 15.40625 -2.15625 C 14 -0.5625 12.039062 0.234375 9.53125 0.234375 C 6.957031 0.234375 4.972656 -0.546875 3.578125 -2.109375 C 2.179688 -3.679688 1.484375 -5.898438 1.484375 -8.765625 C 1.484375 -11.597656 2.179688 -13.796875 3.578125 -15.359375 C 4.984375 -16.921875 6.972656 -17.703125 9.546875 -17.703125 C 12.054688 -17.703125 14.015625 -16.90625 15.421875 -15.3125 C 16.828125 -13.726562 17.53125 -11.535156 17.53125 -8.734375 Z M 3.640625 -8.734375 C 3.640625 -6.378906 4.140625 -4.585938 5.140625 -3.359375 C 6.148438 -2.140625 7.613281 -1.53125 9.53125 -1.53125 C 11.457031 -1.53125 12.914062 -2.140625 13.90625 -3.359375 C 14.894531 -4.578125 15.390625 -6.367188 15.390625 -8.734375 C 15.390625 -11.085938 14.894531 -12.867188 13.90625 -14.078125 C 12.925781 -15.285156 11.472656 -15.890625 9.546875 -15.890625 C 7.617188 -15.890625 6.148438 -15.28125 5.140625 -14.0625 C 4.140625 -12.84375 3.640625 -11.066406 3.640625 -8.734375 Z M 3.640625 -8.734375 "/></g></g></g><g fill="#a6e9de" fill-opacity="1"><g transform="translate(533.609522, 183.672647)"><g><path d="M 16.015625 0 L 13.703125 0 L 4.171875 -14.625 L 4.078125 -14.625 C 4.203125 -12.914062 4.265625 -11.34375 4.265625 -9.90625 L 4.265625 0 L 2.390625 0 L 2.390625 -17.4375 L 4.6875 -17.4375 L 14.1875 -2.859375 L 14.28125 -2.859375 C 14.269531 -3.078125 14.234375 -3.765625 14.171875 -4.921875 C 14.117188 -6.085938 14.101562 -6.921875 14.125 -7.421875 L 14.125 -17.4375 L 16.015625 -17.4375 Z M 16.015625 0 "/></g></g></g><g fill="#a6e9de" fill-opacity="1"><g transform="translate(571.418357, 183.672647)"><g><path d="M 12.234375 -4.640625 C 12.234375 -3.109375 11.675781 -1.910156 10.5625 -1.046875 C 9.445312 -0.191406 7.9375 0.234375 6.03125 0.234375 C 3.96875 0.234375 2.378906 -0.03125 1.265625 -0.5625 L 1.265625 -2.515625 C 1.984375 -2.210938 2.757812 -1.972656 3.59375 -1.796875 C 4.4375 -1.617188 5.273438 -1.53125 6.109375 -1.53125 C 7.453125 -1.53125 8.46875 -1.785156 9.15625 -2.296875 C 9.84375 -2.816406 10.1875 -3.535156 10.1875 -4.453125 C 10.1875 -5.054688 10.0625 -5.550781 9.8125 -5.9375 C 9.570312 -6.320312 9.164062 -6.675781 8.59375 -7 C 8.03125 -7.320312 7.171875 -7.691406 6.015625 -8.109375 C 4.390625 -8.691406 3.226562 -9.378906 2.53125 -10.171875 C 1.832031 -10.960938 1.484375 -12 1.484375 -13.28125 C 1.484375 -14.625 1.988281 -15.691406 3 -16.484375 C 4.007812 -17.285156 5.347656 -17.6875 7.015625 -17.6875 C 8.742188 -17.6875 10.335938 -17.367188 11.796875 -16.734375 L 11.15625 -14.96875 C 9.71875 -15.570312 8.320312 -15.875 6.96875 -15.875 C 5.894531 -15.875 5.054688 -15.640625 4.453125 -15.171875 C 3.847656 -14.710938 3.546875 -14.078125 3.546875 -13.265625 C 3.546875 -12.660156 3.65625 -12.164062 3.875 -11.78125 C 4.09375 -11.394531 4.46875 -11.039062 5 -10.71875 C 5.53125 -10.394531 6.335938 -10.035156 7.421875 -9.640625 C 9.253906 -8.992188 10.515625 -8.296875 11.203125 -7.546875 C 11.890625 -6.796875 12.234375 -5.828125 12.234375 -4.640625 Z M 12.234375 -4.640625 "/></g></g></g></svg>