<svg xmlns="http://www.w3.org/2000/svg" xmlns:xlink="http://www.w3.org/1999/xlink" width="800" zoomAndPan="magnify" viewBox="0 0 600 269.999989" height="360" preserveAspectRatio="xMidYMid meet" version="1.0"><defs><g/><clipPath id="a74eb2e34b"><path d="M 36 188 L 195 188 L 195 233.730469 L 36 233.730469 Z M 36 188 " clip-rule="nonzero"/></clipPath><clipPath id="38e0c80f39"><path d="M 5.382812 70 L 27 70 L 27 175 L 5.382812 175 Z M 5.382812 70 " clip-rule="nonzero"/></clipPath><clipPath id="09c1411a7d"><path d="M 138 129 L 209.382812 129 L 209.382812 223 L 138 223 Z M 138 129 " clip-rule="nonzero"/></clipPath><clipPath id="4ae1888097"><path d="M 12 30.480469 L 108 30.480469 L 108 209 L 12 209 Z M 12 30.480469 " clip-rule="nonzero"/></clipPath></defs><g fill="#a6e9de" fill-opacity="1"><g transform="translate(300.545408, 142.616465)"><g><path d="M 18.34375 -29.515625 C 14.78125 -29.515625 11.96875 -28.328125 9.90625 -25.953125 C 7.84375 -23.585938 6.8125 -20.34375 6.8125 -16.21875 C 6.8125 -11.96875 7.804688 -8.6875 9.796875 -6.375 C 11.785156 -4.0625 14.617188 -2.90625 18.296875 -2.90625 C 20.554688 -2.90625 23.132812 -3.3125 26.03125 -4.125 L 26.03125 -0.828125 C 23.789062 0.015625 21.019531 0.4375 17.71875 0.4375 C 12.945312 0.4375 9.257812 -1.007812 6.65625 -3.90625 C 4.0625 -6.800781 2.765625 -10.914062 2.765625 -16.25 C 2.765625 -19.59375 3.390625 -22.519531 4.640625 -25.03125 C 5.890625 -27.550781 7.691406 -29.488281 10.046875 -30.84375 C 12.410156 -32.207031 15.191406 -32.890625 18.390625 -32.890625 C 21.785156 -32.890625 24.753906 -32.269531 27.296875 -31.03125 L 25.703125 -27.796875 C 23.242188 -28.941406 20.789062 -29.515625 18.34375 -29.515625 Z M 18.34375 -29.515625 "/></g></g></g><g fill="#a6e9de" fill-opacity="1"><g transform="translate(332.516894, 142.616465)"><g><path d="M 32.609375 -16.25 C 32.609375 -11.0625 31.296875 -6.984375 28.671875 -4.015625 C 26.046875 -1.046875 22.394531 0.4375 17.71875 0.4375 C 12.945312 0.4375 9.257812 -1.019531 6.65625 -3.9375 C 4.0625 -6.851562 2.765625 -10.972656 2.765625 -16.296875 C 2.765625 -21.578125 4.066406 -25.671875 6.671875 -28.578125 C 9.273438 -31.484375 12.972656 -32.9375 17.765625 -32.9375 C 22.421875 -32.9375 26.054688 -31.457031 28.671875 -28.5 C 31.296875 -25.539062 32.609375 -21.457031 32.609375 -16.25 Z M 6.765625 -16.25 C 6.765625 -11.863281 7.695312 -8.535156 9.5625 -6.265625 C 11.4375 -3.992188 14.15625 -2.859375 17.71875 -2.859375 C 21.3125 -2.859375 24.023438 -3.988281 25.859375 -6.25 C 27.691406 -8.507812 28.609375 -11.84375 28.609375 -16.25 C 28.609375 -20.613281 27.691406 -23.921875 25.859375 -26.171875 C 24.035156 -28.429688 21.335938 -29.5625 17.765625 -29.5625 C 14.171875 -29.5625 11.4375 -28.425781 9.5625 -26.15625 C 7.695312 -23.882812 6.765625 -20.582031 6.765625 -16.25 Z M 6.765625 -16.25 "/></g></g></g><g fill="#a6e9de" fill-opacity="1"><g transform="translate(371.20851, 142.616465)"><g><path d="M 30.34375 -16.515625 C 30.34375 -11.171875 28.890625 -7.082031 25.984375 -4.25 C 23.078125 -1.414062 18.894531 0 13.4375 0 L 4.453125 0 L 4.453125 -32.421875 L 14.390625 -32.421875 C 19.429688 -32.421875 23.347656 -31.023438 26.140625 -28.234375 C 28.941406 -25.441406 30.34375 -21.535156 30.34375 -16.515625 Z M 26.34375 -16.390625 C 26.34375 -20.617188 25.28125 -23.804688 23.15625 -25.953125 C 21.039062 -28.097656 17.890625 -29.171875 13.703125 -29.171875 L 8.234375 -29.171875 L 8.234375 -3.265625 L 12.8125 -3.265625 C 17.3125 -3.265625 20.691406 -4.367188 22.953125 -6.578125 C 25.210938 -8.785156 26.34375 -12.054688 26.34375 -16.390625 Z M 26.34375 -16.390625 "/></g></g></g><g fill="#a6e9de" fill-opacity="1"><g transform="translate(407.637906, 142.616465)"><g><path d="M 22.53125 0 L 4.453125 0 L 4.453125 -32.421875 L 22.53125 -32.421875 L 22.53125 -29.078125 L 8.234375 -29.078125 L 8.234375 -18.625 L 21.671875 -18.625 L 21.671875 -15.296875 L 8.234375 -15.296875 L 8.234375 -3.375 L 22.53125 -3.375 Z M 22.53125 0 "/></g></g></g><g fill="#a6e9de" fill-opacity="1"><g transform="translate(436.216056, 142.616465)"><g><path d="M 24.84375 0 L 20.796875 -10.3125 L 7.8125 -10.3125 L 3.8125 0 L 0 0 L 12.8125 -32.5625 L 15.984375 -32.5625 L 28.75 0 Z M 19.625 -13.703125 L 15.859375 -23.75 C 15.367188 -25.019531 14.863281 -26.582031 14.34375 -28.4375 C 14.019531 -27.007812 13.554688 -25.445312 12.953125 -23.75 L 9.140625 -13.703125 Z M 19.625 -13.703125 "/></g></g></g><g fill="#a6e9de" fill-opacity="1"><g transform="translate(468.276253, 142.616465)"><g><path d="M 4.453125 0 L 4.453125 -32.421875 L 8.234375 -32.421875 L 8.234375 -3.421875 L 22.53125 -3.421875 L 22.53125 0 Z M 4.453125 0 "/></g></g></g><g fill="#a6e9de" fill-opacity="1"><g transform="translate(495.168836, 142.616465)"><g><path d="M 22.53125 0 L 4.453125 0 L 4.453125 -32.421875 L 22.53125 -32.421875 L 22.53125 -29.078125 L 8.234375 -29.078125 L 8.234375 -18.625 L 21.671875 -18.625 L 21.671875 -15.296875 L 8.234375 -15.296875 L 8.234375 -3.375 L 22.53125 -3.375 Z M 22.53125 0 "/></g></g></g><g fill="#a6e9de" fill-opacity="1"><g transform="translate(222.009603, 167.206597)"><g><path d="M 8.09375 -3.0625 C 8.09375 -2.050781 7.722656 -1.257812 6.984375 -0.6875 C 6.253906 -0.125 5.253906 0.15625 3.984375 0.15625 C 2.617188 0.15625 1.570312 -0.0195312 0.84375 -0.375 L 0.84375 -1.671875 C 1.3125 -1.460938 1.820312 -1.300781 2.375 -1.1875 C 2.9375 -1.070312 3.492188 -1.015625 4.046875 -1.015625 C 4.929688 -1.015625 5.597656 -1.179688 6.046875 -1.515625 C 6.503906 -1.859375 6.734375 -2.332031 6.734375 -2.9375 C 6.734375 -3.34375 6.648438 -3.671875 6.484375 -3.921875 C 6.328125 -4.179688 6.0625 -4.414062 5.6875 -4.625 C 5.3125 -4.84375 4.738281 -5.085938 3.96875 -5.359375 C 2.894531 -5.742188 2.128906 -6.195312 1.671875 -6.71875 C 1.210938 -7.25 0.984375 -7.9375 0.984375 -8.78125 C 0.984375 -9.675781 1.316406 -10.382812 1.984375 -10.90625 C 2.648438 -11.4375 3.535156 -11.703125 4.640625 -11.703125 C 5.785156 -11.703125 6.835938 -11.488281 7.796875 -11.0625 L 7.390625 -9.90625 C 6.429688 -10.300781 5.503906 -10.5 4.609375 -10.5 C 3.898438 -10.5 3.34375 -10.34375 2.9375 -10.03125 C 2.539062 -9.726562 2.34375 -9.304688 2.34375 -8.765625 C 2.34375 -8.367188 2.414062 -8.039062 2.5625 -7.78125 C 2.707031 -7.53125 2.953125 -7.296875 3.296875 -7.078125 C 3.648438 -6.867188 4.191406 -6.632812 4.921875 -6.375 C 6.128906 -5.945312 6.957031 -5.484375 7.40625 -4.984375 C 7.863281 -4.492188 8.09375 -3.851562 8.09375 -3.0625 Z M 8.09375 -3.0625 "/></g></g></g><g fill="#a6e9de" fill-opacity="1"><g transform="translate(243.713561, 167.206597)"><g><path d="M 11.59375 -5.78125 C 11.59375 -3.9375 11.125 -2.484375 10.1875 -1.421875 C 9.257812 -0.367188 7.960938 0.15625 6.296875 0.15625 C 4.597656 0.15625 3.285156 -0.359375 2.359375 -1.390625 C 1.441406 -2.429688 0.984375 -3.898438 0.984375 -5.796875 C 0.984375 -7.671875 1.445312 -9.125 2.375 -10.15625 C 3.300781 -11.195312 4.613281 -11.71875 6.3125 -11.71875 C 7.96875 -11.71875 9.257812 -11.191406 10.1875 -10.140625 C 11.125 -9.085938 11.59375 -7.632812 11.59375 -5.78125 Z M 2.40625 -5.78125 C 2.40625 -4.21875 2.738281 -3.03125 3.40625 -2.21875 C 4.070312 -1.414062 5.035156 -1.015625 6.296875 -1.015625 C 7.578125 -1.015625 8.539062 -1.414062 9.1875 -2.21875 C 9.84375 -3.03125 10.171875 -4.21875 10.171875 -5.78125 C 10.171875 -7.332031 9.847656 -8.507812 9.203125 -9.3125 C 8.554688 -10.113281 7.59375 -10.515625 6.3125 -10.515625 C 5.039062 -10.515625 4.070312 -10.109375 3.40625 -9.296875 C 2.738281 -8.492188 2.40625 -7.320312 2.40625 -5.78125 Z M 2.40625 -5.78125 "/></g></g></g><g fill="#a6e9de" fill-opacity="1"><g transform="translate(269.134045, 167.206597)"><g><path d="M 2.921875 0 L 1.578125 0 L 1.578125 -11.53125 L 8.015625 -11.53125 L 8.015625 -10.34375 L 2.921875 -10.34375 L 2.921875 -6.125 L 7.703125 -6.125 L 7.703125 -4.9375 L 2.921875 -4.9375 Z M 2.921875 0 "/></g></g></g><g fill="#a6e9de" fill-opacity="1"><g transform="translate(290.309332, 167.206597)"><g><path d="M 5.140625 0 L 3.796875 0 L 3.796875 -10.34375 L 0.140625 -10.34375 L 0.140625 -11.53125 L 8.78125 -11.53125 L 8.78125 -10.34375 L 5.140625 -10.34375 Z M 5.140625 0 "/></g></g></g><g fill="#a6e9de" fill-opacity="1"><g transform="translate(312.084313, 167.206597)"><g><path d="M 11.65625 0 L 10.328125 0 L 8 -7.71875 C 7.882812 -8.0625 7.757812 -8.492188 7.625 -9.015625 C 7.488281 -9.535156 7.421875 -9.847656 7.421875 -9.953125 C 7.296875 -9.265625 7.109375 -8.503906 6.859375 -7.671875 L 4.609375 0 L 3.28125 0 L 0.21875 -11.53125 L 1.640625 -11.53125 L 3.453125 -4.40625 C 3.703125 -3.40625 3.882812 -2.503906 4 -1.703125 C 4.144531 -2.660156 4.359375 -3.597656 4.640625 -4.515625 L 6.703125 -11.53125 L 8.125 -11.53125 L 10.296875 -4.453125 C 10.546875 -3.640625 10.757812 -2.722656 10.9375 -1.703125 C 11.03125 -2.441406 11.21875 -3.347656 11.5 -4.421875 L 13.3125 -11.53125 L 14.734375 -11.53125 Z M 11.65625 0 "/></g></g></g><g fill="#a6e9de" fill-opacity="1"><g transform="translate(339.879893, 167.206597)"><g><path d="M 8.828125 0 L 7.40625 -3.671875 L 2.78125 -3.671875 L 1.359375 0 L 0 0 L 4.5625 -11.578125 L 5.6875 -11.578125 L 10.21875 0 Z M 6.984375 -4.875 L 5.640625 -8.453125 C 5.460938 -8.898438 5.285156 -9.453125 5.109375 -10.109375 C 4.992188 -9.609375 4.828125 -9.054688 4.609375 -8.453125 L 3.25 -4.875 Z M 6.984375 -4.875 "/></g></g></g><g fill="#a6e9de" fill-opacity="1"><g transform="translate(362.941052, 167.206597)"><g><path d="M 2.921875 -4.796875 L 2.921875 0 L 1.578125 0 L 1.578125 -11.53125 L 4.75 -11.53125 C 6.164062 -11.53125 7.210938 -11.257812 7.890625 -10.71875 C 8.566406 -10.175781 8.90625 -9.363281 8.90625 -8.28125 C 8.90625 -6.75 8.128906 -5.71875 6.578125 -5.1875 L 9.71875 0 L 8.125 0 L 5.328125 -4.796875 Z M 2.921875 -5.953125 L 4.765625 -5.953125 C 5.710938 -5.953125 6.40625 -6.140625 6.84375 -6.515625 C 7.289062 -6.890625 7.515625 -7.453125 7.515625 -8.203125 C 7.515625 -8.960938 7.285156 -9.507812 6.828125 -9.84375 C 6.378906 -10.1875 5.660156 -10.359375 4.671875 -10.359375 L 2.921875 -10.359375 Z M 2.921875 -5.953125 "/></g></g></g><g fill="#a6e9de" fill-opacity="1"><g transform="translate(385.765491, 167.206597)"><g><path d="M 8.015625 0 L 1.578125 0 L 1.578125 -11.53125 L 8.015625 -11.53125 L 8.015625 -10.34375 L 2.921875 -10.34375 L 2.921875 -6.625 L 7.703125 -6.625 L 7.703125 -5.4375 L 2.921875 -5.4375 L 2.921875 -1.203125 L 8.015625 -1.203125 Z M 8.015625 0 "/></g></g></g><g fill="#a6e9de" fill-opacity="1"><g transform="translate(407.587816, 167.206597)"><g><path d="M 8.09375 -3.0625 C 8.09375 -2.050781 7.722656 -1.257812 6.984375 -0.6875 C 6.253906 -0.125 5.253906 0.15625 3.984375 0.15625 C 2.617188 0.15625 1.570312 -0.0195312 0.84375 -0.375 L 0.84375 -1.671875 C 1.3125 -1.460938 1.820312 -1.300781 2.375 -1.1875 C 2.9375 -1.070312 3.492188 -1.015625 4.046875 -1.015625 C 4.929688 -1.015625 5.597656 -1.179688 6.046875 -1.515625 C 6.503906 -1.859375 6.734375 -2.332031 6.734375 -2.9375 C 6.734375 -3.34375 6.648438 -3.671875 6.484375 -3.921875 C 6.328125 -4.179688 6.0625 -4.414062 5.6875 -4.625 C 5.3125 -4.84375 4.738281 -5.085938 3.96875 -5.359375 C 2.894531 -5.742188 2.128906 -6.195312 1.671875 -6.71875 C 1.210938 -7.25 0.984375 -7.9375 0.984375 -8.78125 C 0.984375 -9.675781 1.316406 -10.382812 1.984375 -10.90625 C 2.648438 -11.4375 3.535156 -11.703125 4.640625 -11.703125 C 5.785156 -11.703125 6.835938 -11.488281 7.796875 -11.0625 L 7.390625 -9.90625 C 6.429688 -10.300781 5.503906 -10.5 4.609375 -10.5 C 3.898438 -10.5 3.34375 -10.34375 2.9375 -10.03125 C 2.539062 -9.726562 2.34375 -9.304688 2.34375 -8.765625 C 2.34375 -8.367188 2.414062 -8.039062 2.5625 -7.78125 C 2.707031 -7.53125 2.953125 -7.296875 3.296875 -7.078125 C 3.648438 -6.867188 4.191406 -6.632812 4.921875 -6.375 C 6.128906 -5.945312 6.957031 -5.484375 7.40625 -4.984375 C 7.863281 -4.492188 8.09375 -3.851562 8.09375 -3.0625 Z M 8.09375 -3.0625 "/></g></g></g><g fill="#a6e9de" fill-opacity="1"><g transform="translate(429.291775, 167.206597)"><g><path d="M 11.59375 -5.78125 C 11.59375 -3.9375 11.125 -2.484375 10.1875 -1.421875 C 9.257812 -0.367188 7.960938 0.15625 6.296875 0.15625 C 4.597656 0.15625 3.285156 -0.359375 2.359375 -1.390625 C 1.441406 -2.429688 0.984375 -3.898438 0.984375 -5.796875 C 0.984375 -7.671875 1.445312 -9.125 2.375 -10.15625 C 3.300781 -11.195312 4.613281 -11.71875 6.3125 -11.71875 C 7.96875 -11.71875 9.257812 -11.191406 10.1875 -10.140625 C 11.125 -9.085938 11.59375 -7.632812 11.59375 -5.78125 Z M 2.40625 -5.78125 C 2.40625 -4.21875 2.738281 -3.03125 3.40625 -2.21875 C 4.070312 -1.414062 5.035156 -1.015625 6.296875 -1.015625 C 7.578125 -1.015625 8.539062 -1.414062 9.1875 -2.21875 C 9.84375 -3.03125 10.171875 -4.21875 10.171875 -5.78125 C 10.171875 -7.332031 9.847656 -8.507812 9.203125 -9.3125 C 8.554688 -10.113281 7.59375 -10.515625 6.3125 -10.515625 C 5.039062 -10.515625 4.070312 -10.109375 3.40625 -9.296875 C 2.738281 -8.492188 2.40625 -7.320312 2.40625 -5.78125 Z M 2.40625 -5.78125 "/></g></g></g><g fill="#a6e9de" fill-opacity="1"><g transform="translate(454.712259, 167.206597)"><g><path d="M 1.578125 0 L 1.578125 -11.53125 L 2.921875 -11.53125 L 2.921875 -1.21875 L 8.015625 -1.21875 L 8.015625 0 Z M 1.578125 0 "/></g></g></g><g fill="#a6e9de" fill-opacity="1"><g transform="translate(475.93489, 167.206597)"><g><path d="M 10.296875 -11.53125 L 10.296875 -4.078125 C 10.296875 -2.753906 9.894531 -1.71875 9.09375 -0.96875 C 8.300781 -0.21875 7.210938 0.15625 5.828125 0.15625 C 4.441406 0.15625 3.367188 -0.21875 2.609375 -0.96875 C 1.847656 -1.726562 1.46875 -2.773438 1.46875 -4.109375 L 1.46875 -11.53125 L 2.8125 -11.53125 L 2.8125 -4 C 2.8125 -3.039062 3.070312 -2.300781 3.59375 -1.78125 C 4.125 -1.269531 4.898438 -1.015625 5.921875 -1.015625 C 6.890625 -1.015625 7.632812 -1.273438 8.15625 -1.796875 C 8.6875 -2.316406 8.953125 -3.054688 8.953125 -4.015625 L 8.953125 -11.53125 Z M 10.296875 -11.53125 "/></g></g></g><g fill="#a6e9de" fill-opacity="1"><g transform="translate(500.534742, 167.206597)"><g><path d="M 5.140625 0 L 3.796875 0 L 3.796875 -10.34375 L 0.140625 -10.34375 L 0.140625 -11.53125 L 8.78125 -11.53125 L 8.78125 -10.34375 L 5.140625 -10.34375 Z M 5.140625 0 "/></g></g></g><g fill="#a6e9de" fill-opacity="1"><g transform="translate(522.309711, 167.206597)"><g><path d="M 1.578125 0 L 1.578125 -11.53125 L 2.921875 -11.53125 L 2.921875 0 Z M 1.578125 0 "/></g></g></g><g fill="#a6e9de" fill-opacity="1"><g transform="translate(539.650118, 167.206597)"><g><path d="M 11.59375 -5.78125 C 11.59375 -3.9375 11.125 -2.484375 10.1875 -1.421875 C 9.257812 -0.367188 7.960938 0.15625 6.296875 0.15625 C 4.597656 0.15625 3.285156 -0.359375 2.359375 -1.390625 C 1.441406 -2.429688 0.984375 -3.898438 0.984375 -5.796875 C 0.984375 -7.671875 1.445312 -9.125 2.375 -10.15625 C 3.300781 -11.195312 4.613281 -11.71875 6.3125 -11.71875 C 7.96875 -11.71875 9.257812 -11.191406 10.1875 -10.140625 C 11.125 -9.085938 11.59375 -7.632812 11.59375 -5.78125 Z M 2.40625 -5.78125 C 2.40625 -4.21875 2.738281 -3.03125 3.40625 -2.21875 C 4.070312 -1.414062 5.035156 -1.015625 6.296875 -1.015625 C 7.578125 -1.015625 8.539062 -1.414062 9.1875 -2.21875 C 9.84375 -3.03125 10.171875 -4.21875 10.171875 -5.78125 C 10.171875 -7.332031 9.847656 -8.507812 9.203125 -9.3125 C 8.554688 -10.113281 7.59375 -10.515625 6.3125 -10.515625 C 5.039062 -10.515625 4.070312 -10.109375 3.40625 -9.296875 C 2.738281 -8.492188 2.40625 -7.320312 2.40625 -5.78125 Z M 2.40625 -5.78125 "/></g></g></g><g fill="#a6e9de" fill-opacity="1"><g transform="translate(565.070602, 167.206597)"><g><path d="M 10.59375 0 L 9.0625 0 L 2.765625 -9.671875 L 2.703125 -9.671875 C 2.785156 -8.535156 2.828125 -7.5 2.828125 -6.5625 L 2.828125 0 L 1.578125 0 L 1.578125 -11.53125 L 3.09375 -11.53125 L 9.390625 -1.890625 L 9.453125 -1.890625 C 9.441406 -2.035156 9.414062 -2.492188 9.375 -3.265625 C 9.34375 -4.035156 9.332031 -4.585938 9.34375 -4.921875 L 9.34375 -11.53125 L 10.59375 -11.53125 Z M 10.59375 0 "/></g></g></g><g fill="#a6e9de" fill-opacity="1"><g transform="translate(590.088644, 167.206597)"><g><path d="M 8.09375 -3.0625 C 8.09375 -2.050781 7.722656 -1.257812 6.984375 -0.6875 C 6.253906 -0.125 5.253906 0.15625 3.984375 0.15625 C 2.617188 0.15625 1.570312 -0.0195312 0.84375 -0.375 L 0.84375 -1.671875 C 1.3125 -1.460938 1.820312 -1.300781 2.375 -1.1875 C 2.9375 -1.070312 3.492188 -1.015625 4.046875 -1.015625 C 4.929688 -1.015625 5.597656 -1.179688 6.046875 -1.515625 C 6.503906 -1.859375 6.734375 -2.332031 6.734375 -2.9375 C 6.734375 -3.34375 6.648438 -3.671875 6.484375 -3.921875 C 6.328125 -4.179688 6.0625 -4.414062 5.6875 -4.625 C 5.3125 -4.84375 4.738281 -5.085938 3.96875 -5.359375 C 2.894531 -5.742188 2.128906 -6.195312 1.671875 -6.71875 C 1.210938 -7.25 0.984375 -7.9375 0.984375 -8.78125 C 0.984375 -9.675781 1.316406 -10.382812 1.984375 -10.90625 C 2.648438 -11.4375 3.535156 -11.703125 4.640625 -11.703125 C 5.785156 -11.703125 6.835938 -11.488281 7.796875 -11.0625 L 7.390625 -9.90625 C 6.429688 -10.300781 5.503906 -10.5 4.609375 -10.5 C 3.898438 -10.5 3.34375 -10.34375 2.9375 -10.03125 C 2.539062 -9.726562 2.34375 -9.304688 2.34375 -8.765625 C 2.34375 -8.367188 2.414062 -8.039062 2.5625 -7.78125 C 2.707031 -7.53125 2.953125 -7.296875 3.296875 -7.078125 C 3.648438 -6.867188 4.191406 -6.632812 4.921875 -6.375 C 6.128906 -5.945312 6.957031 -5.484375 7.40625 -4.984375 C 7.863281 -4.492188 8.09375 -3.851562 8.09375 -3.0625 Z M 8.09375 -3.0625 "/></g></g></g><g clip-path="url(#a74eb2e34b)"><path fill="#a6e9de" d="M 187.855469 191.308594 C 187.867188 191.292969 187.886719 191.265625 187.914062 191.230469 C 187.886719 191.265625 187.867188 191.289062 187.855469 191.308594 Z M 188.695312 195.175781 C 187.375 194.167969 187.121094 192.273438 188.128906 190.949219 C 188.078125 191.015625 188.03125 191.078125 187.988281 191.136719 C 188.027344 191.085938 188.070312 191.027344 188.128906 190.949219 C 188.304688 190.71875 188.386719 190.613281 188.410156 190.582031 C 188.378906 190.625 188.253906 190.785156 188.128906 190.949219 C 189.136719 189.628906 191.03125 189.371094 192.351562 190.382812 C 193.671875 191.390625 193.929688 193.28125 192.921875 194.605469 C 191.914062 195.925781 190.019531 196.183594 188.695312 195.175781 Z M 37.761719 202.425781 C 36.449219 203.824219 36.515625 206.023438 37.917969 207.339844 C 38.929688 208.292969 40.359375 208.515625 41.574219 208.039062 C 60.554688 224.503906 84.65625 233.539062 109.828125 233.539062 C 126.085938 233.539062 141.671875 229.882812 156.152344 222.675781 C 168.8125 216.375 180.246094 207.386719 189.429688 196.558594 C 190.945312 196.992188 192.644531 196.492188 193.65625 195.164062 C 194.972656 193.4375 194.640625 190.960938 192.910156 189.644531 C 191.183594 188.332031 188.710938 188.660156 187.394531 190.390625 C 186.433594 191.644531 186.355469 193.296875 187.042969 194.613281 C 167.71875 217.441406 139.789062 230.457031 109.828125 230.457031 C 85.425781 230.457031 62.050781 221.703125 43.640625 205.75 C 43.980469 204.542969 43.65625 203.191406 42.675781 202.273438 C 41.277344 200.960938 39.078125 201.027344 37.761719 202.425781 " fill-opacity="1" fill-rule="nonzero"/></g><g clip-path="url(#38e0c80f39)"><path fill="#a6e9de" d="M 18.542969 169.347656 C 18.535156 169.332031 18.523438 169.304688 18.503906 169.265625 C 18.523438 169.308594 18.535156 169.335938 18.542969 169.347656 Z M 18.234375 168.660156 C 18.148438 168.46875 18.109375 168.386719 18.234375 168.660156 Z M 14.367188 167.40625 C 15.882812 166.722656 17.667969 167.402344 18.351562 168.921875 C 19.03125 170.4375 18.351562 172.222656 16.835938 172.90625 C 15.320312 173.585938 13.53125 172.90625 12.851562 171.390625 C 12.171875 169.875 12.851562 168.085938 14.367188 167.40625 Z M 25.832031 76.351562 C 26.882812 74.746094 26.433594 72.59375 24.828125 71.539062 C 23.222656 70.488281 21.066406 70.941406 20.015625 72.542969 C 19.246094 73.71875 19.285156 75.183594 19.984375 76.296875 C 10.515625 92.3125 5.523438 110.539062 5.523438 129.234375 C 5.523438 142.441406 7.964844 155.265625 12.769531 167.421875 C 11.6875 168.546875 11.328125 170.257812 12.007812 171.769531 C 12.898438 173.75 15.234375 174.636719 17.214844 173.75 C 19.195312 172.855469 20.082031 170.523438 19.195312 168.542969 C 18.539062 167.085938 17.109375 166.226562 15.609375 166.222656 C 10.964844 154.449219 8.605469 142.023438 8.605469 129.234375 C 8.605469 111.113281 13.4375 93.4375 22.609375 77.910156 C 23.847656 78.023438 25.105469 77.464844 25.832031 76.351562 " fill-opacity="1" fill-rule="nonzero"/></g><path fill="#a6e9de" d="M 152.867188 47.539062 C 152.898438 47.554688 152.90625 47.558594 152.867188 47.539062 Z M 152.847656 47.53125 C 152.824219 47.519531 152.792969 47.503906 152.753906 47.480469 C 152.792969 47.5 152.824219 47.519531 152.847656 47.53125 Z M 155.15625 41.945312 C 156.644531 42.6875 157.25 44.5 156.507812 45.988281 C 155.765625 47.472656 153.953125 48.082031 152.464844 47.335938 C 150.976562 46.597656 150.371094 44.78125 151.117188 43.296875 C 151.855469 41.808594 153.667969 41.203125 155.15625 41.945312 Z M 187.675781 68.40625 C 186.828125 67.285156 185.429688 66.828125 184.140625 67.117188 C 176.738281 58.28125 167.707031 50.734375 157.726562 45.027344 C 157.878906 43.449219 157.070312 41.867188 155.570312 41.117188 C 153.625 40.148438 151.257812 40.941406 150.285156 42.882812 C 149.316406 44.828125 150.109375 47.195312 152.050781 48.167969 C 153.460938 48.867188 155.085938 48.644531 156.246094 47.730469 C 165.878906 53.246094 174.59375 60.535156 181.746094 69.054688 C 181.230469 70.183594 181.335938 71.546875 182.136719 72.605469 C 183.296875 74.132812 185.476562 74.433594 187.007812 73.277344 C 188.539062 72.117188 188.835938 69.933594 187.675781 68.40625 " fill-opacity="1" fill-rule="nonzero"/><g clip-path="url(#09c1411a7d)"><path fill="#a6e9de" d="M 202.09375 133.464844 C 202.089844 133.507812 202.089844 133.539062 202.089844 133.5625 C 202.089844 133.542969 202.089844 133.507812 202.09375 133.464844 Z M 202.109375 132.640625 C 202.109375 132.632812 202.109375 132.632812 202.109375 132.640625 Z M 205.175781 130.160156 C 206.835938 130.195312 208.160156 131.574219 208.125 133.234375 C 208.089844 134.894531 206.710938 136.21875 205.050781 136.183594 C 203.390625 136.152344 202.066406 134.773438 202.101562 133.113281 C 202.097656 133.238281 202.097656 133.363281 202.09375 133.453125 C 202.09375 133.378906 202.097656 133.265625 202.101562 133.109375 C 202.105469 132.863281 202.109375 132.730469 202.109375 132.667969 C 202.105469 132.746094 202.105469 132.929688 202.101562 133.109375 C 202.132812 131.449219 203.515625 130.125 205.175781 130.160156 Z M 209.050781 133.253906 C 209.09375 131.082031 207.363281 129.277344 205.195312 129.234375 C 203.023438 129.1875 201.21875 130.917969 201.175781 133.09375 C 201.144531 134.660156 202.042969 136.035156 203.359375 136.691406 C 200.5625 172.292969 178.003906 202.96875 144.765625 216.3125 C 143.855469 215.472656 142.523438 215.148438 141.269531 215.578125 C 139.457031 216.203125 138.492188 218.183594 139.121094 220 C 139.746094 221.816406 141.726562 222.777344 143.542969 222.148438 C 144.871094 221.691406 145.738281 220.507812 145.867188 219.191406 C 162.496094 212.515625 176.902344 201.398438 187.679688 186.882812 C 198.574219 172.210938 205.015625 154.992188 206.433594 136.875 C 207.929688 136.34375 209.015625 134.929688 209.050781 133.253906 C 209.050781 133.253906 209.050781 133.257812 209.050781 133.261719 C 209.050781 133.257812 209.050781 133.253906 209.050781 133.253906 C 209.050781 133.191406 209.050781 133.132812 209.054688 133.078125 C 209.050781 133.136719 209.050781 133.195312 209.050781 133.253906 " fill-opacity="1" fill-rule="nonzero"/></g><g clip-path="url(#4ae1888097)"><path fill="#a6e9de" d="M 53.265625 202.195312 C 53.257812 202.183594 53.253906 202.183594 53.265625 202.195312 Z M 49.425781 203.101562 C 50.417969 201.765625 52.308594 201.484375 53.644531 202.46875 C 53.492188 202.359375 53.339844 202.246094 53.28125 202.203125 C 53.328125 202.238281 53.4375 202.320312 53.644531 202.46875 C 53.882812 202.648438 53.992188 202.730469 54.019531 202.75 C 53.980469 202.722656 53.8125 202.597656 53.644531 202.472656 C 54.980469 203.460938 55.261719 205.351562 54.273438 206.6875 C 53.285156 208.023438 51.394531 208.304688 50.058594 207.316406 C 48.722656 206.328125 48.4375 204.4375 49.425781 203.101562 Z M 101.183594 32.714844 C 77.726562 34.796875 55.960938 45.304688 39.59375 62.53125 C 22.394531 80.632812 12.921875 104.320312 12.921875 129.234375 C 12.921875 144.570312 16.414062 159.246094 23.304688 172.855469 C 29.296875 184.695312 37.8125 195.339844 48.058594 203.847656 C 47.640625 205.371094 48.164062 207.066406 49.507812 208.0625 C 51.253906 209.351562 53.726562 208.984375 55.015625 207.238281 C 56.308594 205.492188 55.9375 203.019531 54.195312 201.730469 C 52.925781 200.789062 51.277344 200.734375 49.976562 201.4375 C 28.335938 183.507812 16 157.40625 16 129.234375 C 16 80.511719 53.25 40.085938 101.390625 35.792969 C 102.019531 36.875 103.210938 37.578125 104.550781 37.519531 C 106.46875 37.433594 107.953125 35.804688 107.867188 33.886719 C 107.78125 31.972656 106.152344 30.484375 104.234375 30.574219 C 102.84375 30.636719 101.683594 31.511719 101.183594 32.714844 " fill-opacity="1" fill-rule="nonzero"/></g><path fill="#a6e9de" d="M 190.066406 157.164062 C 190.054688 157.195312 190.046875 157.222656 190.039062 157.25 C 190.046875 157.222656 190.054688 157.195312 190.066406 157.164062 Z M 190.03125 157.265625 C 190.019531 157.300781 190.011719 157.332031 190.003906 157.359375 C 190.011719 157.335938 190.019531 157.304688 190.03125 157.265625 Z M 189.980469 157.429688 C 189.976562 157.4375 189.976562 157.4375 189.980469 157.429688 Z M 190.210938 156.707031 C 190.214844 156.703125 190.214844 156.699219 190.21875 156.691406 C 190.214844 156.699219 190.214844 156.703125 190.210938 156.707031 Z M 190.246094 156.601562 C 190.257812 156.5625 190.269531 156.539062 190.269531 156.527344 C 190.265625 156.539062 190.257812 156.5625 190.246094 156.601562 Z M 193.917969 155.035156 C 195.5 155.546875 196.371094 157.25 195.859375 158.828125 C 195.351562 160.410156 193.652344 161.285156 192.066406 160.773438 C 190.488281 160.261719 189.617188 158.558594 190.125 156.980469 C 190.148438 156.90625 190.167969 156.847656 190.1875 156.792969 C 190.167969 156.851562 190.148438 156.914062 190.125 156.980469 C 190.632812 155.394531 192.335938 154.527344 193.917969 155.035156 Z M 196.820312 158.871094 C 196.796875 158.945312 196.769531 159.027344 196.742188 159.113281 C 197.410156 157.046875 196.269531 154.824219 194.203125 154.15625 C 192.136719 153.492188 189.914062 154.628906 189.246094 156.695312 C 188.761719 158.1875 189.226562 159.757812 190.296875 160.769531 C 177.351562 193.757812 145.480469 215.664062 109.828125 215.664062 C 80.523438 215.664062 52.953125 200.5 37.097656 175.878906 C 37.753906 174.828125 37.824219 173.460938 37.167969 172.3125 C 36.21875 170.644531 34.09375 170.066406 32.425781 171.015625 C 30.761719 171.964844 30.179688 174.089844 31.132812 175.757812 C 31.828125 176.980469 33.15625 177.617188 34.472656 177.492188 C 42.136719 189.417969 52.574219 199.433594 64.828125 206.589844 C 78.445312 214.542969 94.007812 218.746094 109.828125 218.746094 C 146.777344 218.746094 179.800781 196.03125 193.195312 161.832031 C 194.777344 161.75 196.226562 160.710938 196.742188 159.113281 C 196.671875 159.328125 196.605469 159.539062 196.570312 159.644531 C 196.59375 159.5625 196.648438 159.398438 196.742188 159.113281 C 196.773438 159.019531 196.796875 158.941406 196.820312 158.871094 " fill-opacity="1" fill-rule="nonzero"/><path fill="#a6e9de" d="M 21.886719 130.46875 C 20.226562 130.460938 18.882812 129.101562 18.890625 127.441406 C 18.898438 125.777344 20.253906 124.433594 21.917969 124.441406 C 23.578125 124.449219 24.925781 125.808594 24.917969 127.46875 C 24.917969 127.054688 24.921875 126.640625 24.917969 127.46875 C 24.914062 127.722656 24.914062 127.859375 24.914062 127.917969 C 24.914062 127.839844 24.914062 127.65625 24.917969 127.46875 C 24.910156 129.132812 23.550781 130.476562 21.886719 130.46875 Z M 109.828125 41.265625 C 109.777344 39.347656 108.183594 37.828125 106.265625 37.878906 C 104.867188 37.914062 103.683594 38.773438 103.164062 39.976562 C 81.523438 41.574219 61.324219 50.933594 45.988281 66.550781 C 30.753906 82.066406 21.785156 102.261719 20.484375 123.785156 C 19.019531 124.351562 17.972656 125.773438 17.964844 127.4375 C 17.953125 129.609375 19.710938 131.382812 21.882812 131.394531 C 24.054688 131.40625 25.832031 129.648438 25.839844 127.472656 C 25.847656 125.890625 24.914062 124.523438 23.566406 123.890625 C 26.195312 80.867188 60.292969 46.261719 103.320312 43.054688 C 103.933594 44.140625 105.109375 44.863281 106.441406 44.828125 C 108.359375 44.777344 109.875 43.183594 109.828125 41.265625 " fill-opacity="1" fill-rule="nonzero"/><path fill="#a6e9de" d="M 48.445312 81.894531 C 48.453125 81.878906 48.453125 81.878906 48.445312 81.894531 Z M 48.417969 81.929688 C 48.378906 81.984375 48.308594 82.078125 48.195312 82.234375 C 48.285156 82.113281 48.371094 81.992188 48.417969 81.929688 Z M 48.144531 82.304688 C 48.070312 82.40625 48.011719 82.484375 47.972656 82.539062 C 48.019531 82.476562 48.082031 82.390625 48.144531 82.304688 Z M 47.957031 82.5625 C 47.9375 82.585938 47.925781 82.605469 47.914062 82.617188 C 47.925781 82.601562 47.9375 82.582031 47.957031 82.5625 Z M 47.898438 82.640625 C 47.882812 82.660156 47.882812 82.660156 47.898438 82.640625 Z M 47.519531 78.058594 C 48.859375 79.039062 49.152344 80.929688 48.167969 82.269531 C 47.1875 83.609375 45.296875 83.902344 43.957031 82.917969 C 42.617188 81.9375 42.324219 80.046875 43.308594 78.707031 C 44.289062 77.363281 46.179688 77.074219 47.519531 78.058594 Z M 165.871094 69.277344 C 150.597656 54.964844 130.824219 47.121094 109.828125 47.121094 C 96.777344 47.121094 84.292969 50.105469 72.714844 55.996094 C 62.820312 61.027344 53.925781 68.144531 46.777344 76.695312 C 45.25 76.277344 43.550781 76.808594 42.5625 78.160156 C 41.277344 79.910156 41.660156 82.382812 43.410156 83.664062 C 45.160156 84.949219 47.632812 84.566406 48.914062 82.816406 C 49.84375 81.550781 49.898438 79.90625 49.191406 78.605469 C 64.285156 60.507812 86.171875 50.203125 109.828125 50.203125 C 130.011719 50.203125 149.019531 57.734375 163.714844 71.480469 C 163.335938 72.65625 163.59375 74.003906 164.511719 74.957031 C 165.835938 76.34375 168.039062 76.394531 169.425781 75.066406 C 170.8125 73.738281 170.859375 71.539062 169.53125 70.152344 C 168.558594 69.136719 167.117188 68.839844 165.871094 69.277344 " fill-opacity="1" fill-rule="nonzero"/><path fill="#a6e9de" d="M 108.84375 199.394531 C 108.855469 199.394531 108.871094 199.394531 108.894531 199.394531 C 108.871094 199.394531 108.855469 199.394531 108.84375 199.394531 Z M 108.929688 199.394531 C 108.976562 199.390625 109.050781 199.390625 109.144531 199.390625 C 109.0625 199.390625 108.984375 199.390625 108.929688 199.394531 Z M 109.683594 199.378906 C 109.703125 199.378906 109.722656 199.378906 109.734375 199.378906 C 109.71875 199.378906 109.703125 199.378906 109.683594 199.378906 Z M 109.78125 199.378906 C 109.796875 199.375 109.796875 199.375 109.78125 199.378906 Z M 106.351562 202.453125 C 106.324219 200.789062 107.652344 199.414062 109.3125 199.382812 C 109.308594 199.382812 109.308594 199.382812 109.304688 199.382812 C 109.308594 199.382812 109.308594 199.382812 109.3125 199.382812 C 109.386719 199.382812 109.445312 199.382812 109.5 199.382812 C 109.441406 199.382812 109.378906 199.382812 109.3125 199.382812 C 110.976562 199.355469 112.351562 200.683594 112.378906 202.34375 C 112.410156 204.007812 111.082031 205.382812 109.421875 205.414062 C 107.757812 205.441406 106.382812 204.113281 106.351562 202.453125 Z M 109.433594 206.335938 C 111.609375 206.296875 113.34375 204.5 113.304688 202.328125 C 113.265625 200.160156 111.46875 198.421875 109.296875 198.460938 C 107.738281 198.488281 106.40625 199.425781 105.792969 200.753906 C 68.183594 198.652344 38.191406 167.328125 38.191406 129.234375 C 38.191406 102.90625 52.308594 79.164062 75.246094 66.511719 C 76.242188 67.238281 77.59375 67.410156 78.785156 66.847656 C 80.519531 66.027344 81.261719 63.953125 80.441406 62.21875 C 79.621094 60.484375 77.550781 59.742188 75.8125 60.5625 C 74.535156 61.167969 73.796875 62.449219 73.824219 63.78125 C 62.804688 69.863281 53.46875 78.632812 46.691406 89.3125 C 39.113281 101.253906 35.109375 115.058594 35.109375 129.234375 C 35.109375 168.996094 66.4375 201.6875 105.707031 203.839844 C 106.292969 205.324219 107.75 206.367188 109.433594 206.335938 " fill-opacity="1" fill-rule="nonzero"/><path fill="#a6e9de" d="M 52.425781 154.664062 C 52.429688 154.667969 52.433594 154.671875 52.4375 154.679688 C 52.429688 154.671875 52.429688 154.667969 52.425781 154.664062 Z M 52.675781 155.164062 C 52.6875 155.195312 52.703125 155.226562 52.714844 155.25 C 52.703125 155.222656 52.6875 155.195312 52.675781 155.164062 Z M 52.796875 155.414062 C 52.816406 155.457031 52.828125 155.484375 52.835938 155.496094 C 52.828125 155.480469 52.8125 155.453125 52.796875 155.414062 Z M 48.59375 153.699219 C 50.085938 152.96875 51.894531 153.582031 52.628906 155.074219 C 53.363281 156.566406 52.746094 158.375 51.253906 159.109375 C 49.761719 159.84375 47.953125 159.226562 47.222656 157.734375 C 46.488281 156.246094 47.101562 154.433594 48.59375 153.699219 Z M 42.507812 129.234375 C 42.507812 137.691406 44.050781 145.894531 47.097656 153.671875 C 45.976562 154.832031 45.640625 156.617188 46.390625 158.144531 C 46.289062 157.9375 46.1875 157.730469 46.140625 157.636719 C 46.179688 157.710938 46.253906 157.867188 46.390625 158.144531 C 46.527344 158.417969 46.601562 158.570312 46.640625 158.648438 C 46.589844 158.550781 46.492188 158.347656 46.390625 158.144531 C 47.351562 160.089844 49.714844 160.898438 51.664062 159.9375 C 53.613281 158.980469 54.417969 156.617188 53.460938 154.667969 C 52.777344 153.28125 51.386719 152.480469 49.9375 152.46875 C 47.050781 145.078125 45.589844 137.277344 45.589844 129.234375 C 45.589844 93.8125 74.40625 64.996094 109.828125 64.996094 C 114.417969 64.996094 118.976562 65.492188 123.429688 66.453125 C 123.699219 67.644531 124.585938 68.660156 125.84375 69.027344 C 127.683594 69.566406 129.617188 68.511719 130.15625 66.667969 C 130.695312 64.828125 129.636719 62.894531 127.796875 62.355469 C 126.433594 61.957031 125.023438 62.429688 124.164062 63.449219 C 119.472656 62.429688 114.664062 61.914062 109.828125 61.914062 C 72.707031 61.914062 42.507812 92.113281 42.507812 129.234375 " fill-opacity="1" fill-rule="nonzero"/><path fill="#a6e9de" d="M 149.105469 168.214844 C 149.078125 168.246094 149.046875 168.277344 149.027344 168.300781 C 149.046875 168.277344 149.074219 168.25 149.105469 168.214844 Z M 149.417969 167.875 C 149.445312 167.847656 149.472656 167.816406 149.492188 167.792969 C 149.46875 167.820312 149.441406 167.847656 149.417969 167.875 Z M 149.570312 167.714844 C 149.648438 167.625 149.632812 167.640625 149.570312 167.714844 Z M 153.558594 167.835938 C 154.777344 168.960938 154.855469 170.875 153.726562 172.09375 C 152.597656 173.316406 150.6875 173.394531 149.46875 172.265625 C 148.246094 171.136719 148.171875 169.226562 149.296875 168.007812 C 149.285156 168.019531 149.273438 168.03125 149.257812 168.046875 C 149.273438 168.03125 149.285156 168.019531 149.296875 168.007812 C 149.320312 167.980469 149.339844 167.960938 149.359375 167.9375 C 149.339844 167.960938 149.320312 167.980469 149.296875 168.003906 C 150.425781 166.78125 152.335938 166.707031 153.558594 167.835938 Z M 154.40625 172.722656 C 155.878906 171.125 155.78125 168.632812 154.183594 167.15625 C 152.589844 165.683594 150.089844 165.785156 148.617188 167.378906 C 147.570312 168.511719 147.320312 170.105469 147.839844 171.457031 C 137.378906 180.910156 124.023438 186.078125 109.828125 186.078125 C 78.484375 186.078125 52.984375 160.578125 52.984375 129.234375 C 52.984375 100.183594 74.871094 75.980469 103.378906 72.757812 C 104.007812 73.796875 105.164062 74.480469 106.464844 74.4375 C 108.382812 74.375 109.886719 72.769531 109.828125 70.851562 C 109.765625 68.933594 108.160156 67.425781 106.238281 67.488281 C 104.8125 67.535156 103.613281 68.4375 103.121094 69.6875 C 73.019531 73.039062 49.902344 98.578125 49.902344 129.234375 C 49.902344 162.277344 76.785156 189.15625 109.828125 189.15625 C 124.832031 189.15625 138.945312 183.683594 149.984375 173.675781 C 151.46875 174.300781 153.25 173.972656 154.40625 172.722656 " fill-opacity="1" fill-rule="nonzero"/><path fill="#a6e9de" d="M 157.667969 132.585938 C 157.667969 132.597656 157.667969 132.613281 157.667969 132.628906 C 157.667969 132.609375 157.667969 132.597656 157.667969 132.585938 Z M 157.667969 132.695312 C 157.660156 132.765625 157.65625 132.867188 157.65625 132.972656 C 157.660156 132.847656 157.660156 132.757812 157.667969 132.695312 Z M 157.636719 133.445312 C 157.636719 133.453125 157.636719 133.460938 157.636719 133.46875 C 157.636719 133.460938 157.636719 133.453125 157.636719 133.445312 Z M 157.632812 133.523438 C 157.632812 133.535156 157.632812 133.535156 157.632812 133.523438 Z M 160.777344 130.160156 C 162.4375 130.222656 163.738281 131.625 163.675781 133.285156 C 163.609375 134.945312 162.210938 136.246094 160.546875 136.183594 C 158.886719 136.117188 157.589844 134.714844 157.652344 133.054688 C 157.714844 131.394531 159.117188 130.09375 160.777344 130.160156 Z M 164.597656 133.320312 C 164.679688 131.152344 162.984375 129.316406 160.816406 129.234375 C 158.644531 129.148438 156.8125 130.847656 156.726562 133.019531 C 156.667969 134.535156 157.484375 135.886719 158.71875 136.59375 C 156.464844 151.542969 147.375 164.769531 134.15625 172.269531 C 133.179688 171.566406 131.871094 171.382812 130.695312 171.910156 C 128.945312 172.695312 128.160156 174.75 128.945312 176.503906 C 129.730469 178.253906 131.785156 179.039062 133.535156 178.253906 C 134.855469 177.664062 135.625 176.355469 135.59375 174.996094 C 149.710938 167.019531 159.410156 152.902344 161.785156 136.941406 C 163.355469 136.472656 164.53125 135.046875 164.597656 133.320312 " fill-opacity="1" fill-rule="nonzero"/><path fill="#a6e9de" d="M 93.386719 174.328125 C 93.386719 174.328125 93.382812 174.324219 93.378906 174.324219 C 93.382812 174.324219 93.386719 174.328125 93.386719 174.328125 Z M 92.050781 180.222656 C 90.460938 179.730469 89.570312 178.039062 90.0625 176.453125 C 90.550781 174.867188 92.242188 173.972656 93.832031 174.464844 C 93.660156 174.410156 93.492188 174.359375 93.417969 174.335938 C 93.476562 174.355469 93.605469 174.394531 93.832031 174.464844 C 94.078125 174.542969 94.210938 174.582031 94.261719 174.597656 C 94.195312 174.578125 94.015625 174.523438 93.832031 174.464844 C 95.417969 174.957031 96.3125 176.648438 95.820312 178.234375 C 95.328125 179.824219 93.636719 180.714844 92.050781 180.222656 Z M 61.054688 137.371094 C 62.054688 136.699219 62.679688 135.527344 62.585938 134.238281 C 62.449219 132.324219 60.785156 130.886719 58.871094 131.019531 C 56.957031 131.160156 55.515625 132.820312 55.652344 134.738281 C 55.753906 136.175781 56.71875 137.34375 58 137.78125 C 60.898438 155.347656 72.652344 170.375 89.007812 177.457031 C 89.054688 179.09375 90.125 180.597656 91.773438 181.105469 C 91.558594 181.039062 91.339844 180.972656 91.238281 180.9375 C 91.320312 180.964844 91.484375 181.015625 91.773438 181.105469 C 92.089844 181.203125 92.261719 181.257812 92.332031 181.28125 C 92.242188 181.253906 92.007812 181.179688 91.773438 181.105469 C 93.851562 181.75 96.058594 180.582031 96.703125 178.507812 C 97.34375 176.433594 96.179688 174.222656 94.105469 173.582031 C 92.652344 173.132812 91.136719 173.570312 90.132812 174.585938 C 74.816406 167.914062 63.804688 153.832031 61.054688 137.371094 " fill-opacity="1" fill-rule="nonzero"/></svg>